SplineFontDB: 3.0
FontName: Besley-it-Bold
FullName: Besley* Bold
FamilyName: Besley*
Weight: Bold
Copyright: Copyright (c) 2017, Owen Earl,,, (EwonRael@yahoo.com)
Version: 001.1
ItalicAngle: 0
UnderlinePosition: -100
UnderlineWidth: 50
Ascent: 800
Descent: 200
InvalidEm: 0
LayerCount: 2
Layer: 0 0 "Back" 1
Layer: 1 0 "Fore" 0
XUID: [1021 31 -699969567 16487490]
FSType: 0
OS2Version: 0
OS2_WeightWidthSlopeOnly: 0
OS2_UseTypoMetrics: 1
CreationTime: 1460762150
ModificationTime: 1500758422
PfmFamily: 17
TTFWeight: 700
TTFWidth: 5
LineGap: 100
VLineGap: 0
OS2TypoAscent: 800
OS2TypoAOffset: 0
OS2TypoDescent: -200
OS2TypoDOffset: 0
OS2TypoLinegap: 100
OS2WinAscent: 900
OS2WinAOffset: 0
OS2WinDescent: 300
OS2WinDOffset: 0
HheadAscent: 900
HheadAOffset: 0
HheadDescent: -200
HheadDOffset: 0
OS2CapHeight: 700
OS2XHeight: 460
OS2FamilyClass: 1024
OS2Vendor: 'PfEd'
OS2UnicodeRanges: 00000001.00000000.00000000.00000000
Lookup: 5 0 0 "'calt' Contextual Alternates lookup 1" { "'calt' Contextual Alternates lookup 1-1"  } ['calt' ('DFLT' <'dflt' > 'grek' <'dflt' > 'latn' <'dflt' > ) ]
Lookup: 1 0 0 "'ss01' Style Set 1 lookup 2" { "'ss01' Style Set 1 lookup 2-1"  } ['ss01' ('DFLT' <'dflt' > 'grek' <'dflt' > 'latn' <'dflt' > ) ]
Lookup: 4 0 1 "'liga' Standard Ligatures lookup 0" { "Not your mama's contextual ligatures"  } ['liga' ('DFLT' <'dflt' > 'grek' <'dflt' > 'latn' <'dflt' > ) ]
Lookup: 258 0 0 "Kern like there's no tomorrow" { "Get it right" [150,0,5] } ['kern' ('DFLT' <'dflt' > 'grek' <'dflt' > 'latn' <'dflt' > ) ]
MarkAttachClasses: 1
DEI: 91125
KernClass2: 19 21 "Get it right"
 3 A L
 15 B R G C U J S N
 3 D O
 7 E H I Z
 5 F P Y
 3 K X
 3 Q M
 3 V W
 9 a h m n u
 7 b e o p
 3 c q
 7 d j l i
 3 k x
 9 r v w y g
 68 quotedbl quotesingle quoteleft quoteright quotedblleft quotedblright
 1 f
 1 t
 1 T
 3 A J
 31 B D E F H I K L M N P R uniFFFD
 7 C G O Q
 3 S Z
 3 V W
 1 U
 1 X
 1 Y
 5 a g s
 7 b h k l
 9 c d e o q
 3 f i
 5 p t u
 5 m n r
 3 v w
 1 z
 12 comma period

StartChar: ampersand
Encoding: 38 38 0
Width: 870
Flags: HMW
LayerCount: 2
Fore
SplineSet
745 405 m 1
 715 182 523 -20 290 -20 c 0
 127 -20 1 57 1 200 c 1
 191 220 l 5
 191 138 251 85 325 85 c 4
 499 85 630 243 650 405 c 1
 745 405 l 1
565 460 m 1
 815 460 l 1
 815 365 l 1
 565 365 l 1
 565 460 l 1
1 200 m 1
 1 490 462 385 462 615 c 1
 626 625 l 1
 626 385 191 460 191 220 c 1
 1 200 l 1
600 95 m 5
 810 95 l 5
 810 0 l 5
 600 0 l 5
 600 95 l 5
746 0 m 5
 546 0 l 5
 195 490 l 2
 170 529 149 568 149 603 c 0
 149 693 244 770 400 770 c 0
 547 770 626 705 626 625 c 1
 462 615 l 1
 462 652 444 700 399 700 c 0
 352 700 327 668 327 625 c 0
 327 590 351.689730911 554.11489986 395 490 c 2
 746 0 l 5
EndSplineSet
EndChar

StartChar: period
Encoding: 46 46 1
Width: 280
Flags: HMW
LayerCount: 2
Fore
SplineSet
40 80 m 4
 40 135 85 180 140 180 c 4
 195 180 240 135 240 80 c 4
 240 25 195 -20 140 -20 c 4
 85 -20 40 25 40 80 c 4
EndSplineSet
EndChar

StartChar: zero
Encoding: 48 48 2
Width: 530
Flags: HMW
LayerCount: 2
Fore
SplineSet
210 280 m 0
 210 128 211 55 265 55 c 4
 319 55 320 128 320 280 c 0
 320 432 319 505 265 505 c 4
 211 505 210 432 210 280 c 0
25 280 m 0
 25 473 102 580 265 580 c 0
 438 580 505 473 505 280 c 0
 505 87 418 -20 265 -20 c 0
 102 -20 25 87 25 280 c 0
EndSplineSet
EndChar

StartChar: one
Encoding: 49 49 3
Width: 530
VWidth: 1155
Flags: HMW
LayerCount: 2
Fore
SplineSet
62 465 m 17
 178 465 265 468 315 590 c 9
 315 465 l 1
 62 465 l 17
315 465 m 1
 315 590 l 1
 380 590 l 1
 380 465 l 1
 315 465 l 1
62 465 m 1
 380 465 l 1
 380 375 l 1
 62 375 l 1
 62 465 l 1
45 100 m 5
 205 100 l 5
 205 0 l 1
 45 0 l 1
 45 100 l 5
380 100 m 5
 500 100 l 5
 500 0 l 1
 380 0 l 1
 380 100 l 5
205 405 m 1
 380 405 l 1
 380 0 l 1
 205 0 l 1
 205 405 l 1
EndSplineSet
EndChar

StartChar: two
Encoding: 50 50 4
Width: 530
VWidth: 1155
Flags: HMW
LayerCount: 2
Fore
SplineSet
510 177 m 5
 510 32 449 -40 360 -40 c 4
 263 -40 248 25 175 25 c 4
 134 25 114 10 104 -20 c 5
 50 -20 l 5
 70 54 127 147 220 147 c 4
 300 147 300 103 366 103 c 4
 409 103 443 125 443 177 c 5
 510 177 l 5
150 477 m 1
 150 459 232 464 232 388 c 0
 232 331 182 290 135 290 c 0
 86 290 31 328 31 396 c 1
 150 477 l 1
31 396 m 1
 31 508 140 580 262 580 c 0
 403 580 498 520 498 410 c 1
 307 420 l 1
 307 484 281 518 222 518 c 0
 188 518 150 499 150 477 c 1
 31 396 l 1
212 249 m 0
 284.8359375 292.935546875 307 356 307 420 c 1
 498 410 l 1
 498 330 430.857421875 254.379882812 247 195 c 0
 140.772460938 160.69140625 94 90 94 -20 c 1
 25 -20 l 1
 25 127 102.180588066 182.755559598 212 249 c 0
EndSplineSet
EndChar

StartChar: three
Encoding: 51 51 5
Width: 530
VWidth: 1155
Flags: HMW
LayerCount: 2
Fore
SplineSet
505 40 m 1
 324 40 l 1
 324 114 306 196 197 196 c 1
 197 245 l 1
 438 245 505 150 505 40 c 1
35 412 m 1
 35 494 124 580 256 580 c 0
 377 580 485 521 485 401 c 1
 304 401 l 1
 304 485 285 518 226 518 c 0
 192 518 164 500 164 478 c 1
 35 412 l 1
164 478 m 1
 164 455 206 450 206 404 c 0
 206 347 171 316 124 316 c 0
 75 316 35 354 35 412 c 1
 164 478 l 1
15 -1 m 1
 144 -54 l 1
 144 -81 172 -98 226 -98 c 0
 295 -98 324 -34 324 40 c 1
 505 40 l 1
 505 -70 397 -170 236 -170 c 4
 74 -170 15 -93 15 -1 c 1
144 -54 m 1
 15 -1 l 1
 15 62 60 105 109 105 c 0
 156 105 196 84 196 27 c 0
 196 -29 144 -31 144 -54 c 1
197 226 m 1
 197 275 l 1
 296 275 304 337 304 401 c 1
 485 401 l 1
 485 301 438 226 197 226 c 1
EndSplineSet
EndChar

StartChar: four
Encoding: 52 52 6
Width: 530
VWidth: 1155
Flags: HMW
LayerCount: 2
Fore
SplineSet
265 219 m 1
 440 219 l 1
 440 -150 l 1
 265 -150 l 1
 265 219 l 1
103 125 m 5
 25 125 l 5
 85 275 255 420 255 560 c 1
 423 560 l 1
 423 380 163 275 103 125 c 5
60 145 m 5
 510 145 l 1
 510 55 l 1
 60 55 l 5
 60 145 l 5
25 125 m 5
 60 125 l 5
 60 55 l 5
 25 55 l 5
 25 125 l 5
265 -60 m 1
 265 -150 l 1
 180 -150 l 1
 180 -60 l 1
 265 -60 l 1
515 -60 m 1
 515 -150 l 1
 440 -150 l 1
 440 -60 l 1
 515 -60 l 1
395 219 m 1
 395 370 l 1
 440 370 l 1
 440 219 l 1
 395 219 l 1
265 219 m 1
 300 240 375 286 395 370 c 9
 395 219 l 1
 265 219 l 1
EndSplineSet
EndChar

StartChar: five
Encoding: 53 53 7
Width: 530
VWidth: 1155
Flags: HMW
LayerCount: 2
Fore
SplineSet
169 565 m 1
 127 197 l 1
 42 197 l 1
 84 565 l 1
 169 565 l 1
505 80 m 1
 324 60 l 1
 324 194 305 241 236 241 c 0
 193 241 166 227 131 197 c 1
 62 197 l 1
 113 274 157 320 268 320 c 0
 449 320 505 220 505 80 c 1
25 -1 m 1
 159 -57 l 1
 159 -75 172 -93 226 -93 c 0
 285 -93 324 -44 324 60 c 1
 505 80 l 1
 505 -70 397 -165 236 -165 c 0
 104 -165 25 -83 25 -1 c 1
159 -57 m 1
 25 -1 l 1
 25 57 65 110 124 110 c 0
 181 110 207 74 207 27 c 0
 207 -31 159 -34 159 -57 c 1
104 395 m 1
 84 565 l 1
 227 565 l 2
 351 565 353 556 390 607 c 5
 465 607 l 5
 458 495 l 2
 452.37309611 413.007971882 422 395 185 395 c 2
 104 395 l 1
EndSplineSet
EndChar

StartChar: six
Encoding: 54 54 8
Width: 530
VWidth: 1155
Flags: HMW
LayerCount: 2
Fore
SplineSet
490 581 m 1
 348 641 l 1
 348 654 333 668 294 668 c 0
 205 668 200 514 200 350 c 1
 20 350 l 1
 20 550 123 730 294 730 c 0
 406 730 490 663 490 581 c 1
348 641 m 1
 490 581 l 1
 490 513 445 485 396 485 c 0
 349 485 309 516 309 573 c 0
 309 619 348 628 348 641 c 1
510 230 m 1
 330 230 l 1
 330 344 323 396 274 396 c 0
 221 396 200 340 200 260 c 1
 166 260 l 1
 166 367 185 465 296 465 c 0
 407 465 510 380 510 230 c 1
510 230 m 1
 510 110 420 -20 269 -20 c 0
 98 -20 20 110 20 350 c 1
 200 350 l 1
 200 260 l 2
 200 156 200 50 269 50 c 0
 328 50 330 146 330 230 c 1
 510 230 l 1
EndSplineSet
EndChar

StartChar: seven
Encoding: 55 55 9
Width: 540
VWidth: 1155
Flags: HMW
LayerCount: 2
Fore
SplineSet
30 353 m 1
 30 498 91 590 180 590 c 0
 277 590 302 525 375 525 c 0
 416 525 446 540 456 570 c 1
 515 570 l 1
 495 496 403 383 310 383 c 0
 230 383 230 427 164 427 c 4
 121 427 97 405 97 353 c 1
 30 353 l 1
299 86 m 1
 299 13 352 14 352 -62 c 0
 352 -119 308 -160 244 -160 c 0
 186 -160 139 -113 139 -34 c 1
 299 86 l 1
338 218 m 0
 300.8359375 144.239257812 299 110 299 86 c 1
 139 -34 l 1
 139 45 179.100585938 123.419921875 249 231 c 0
 325.719726562 349.076171875 456 520 456 570 c 1
 514 570 l 1
 514 503 407.685546875 356.307617188 338 218 c 0
EndSplineSet
EndChar

StartChar: eight
Encoding: 56 56 10
Width: 530
VWidth: 1155
Flags: HMW
LayerCount: 2
Fore
SplineSet
215 530 m 0
 215 456 226 395 265 395 c 0
 304 395 315 456 315 530 c 0
 315 604 304 665 265 665 c 0
 226 665 215 604 215 530 c 0
50 530 m 0
 50 640 134 730 265 730 c 0
 396 730 480 640 480 530 c 0
 480 420 386 355 265 355 c 0
 144 355 50 420 50 530 c 0
205 190 m 0
 205 106 226 40 265 40 c 0
 304 40 325 106 325 190 c 4
 325 274 304 338 265 338 c 0
 226 338 205 274 205 190 c 0
30 180 m 0
 30 300 124 375 265 375 c 0
 406 375 500 300 500 180 c 0
 500 60 426 -20 265 -20 c 0
 104 -20 30 60 30 180 c 0
EndSplineSet
EndChar

StartChar: A
Encoding: 65 65 12
Width: 980
Flags: HMW
LayerCount: 2
Fore
SplineSet
565 765 m 1
 565 659 l 1
 421 659 l 1
 421 765 l 1
 565 765 l 1
240 295 m 1
 700 295 l 1
 700 190 l 1
 240 190 l 1
 240 295 l 1
510 105 m 1
 960 105 l 1
 960 0 l 1
 510 0 l 1
 510 105 l 1
20 105 m 1
 340 105 l 1
 340 0 l 1
 20 0 l 1
 20 105 l 1
405 685 m 1
 565 765 l 1
 870 0 l 1
 650 0 l 1
 405 685 l 1
406 765 m 5
 520 765 l 1
 204 0 l 1
 80 0 l 5
 406 765 l 5
EndSplineSet
EndChar

StartChar: B
Encoding: 66 66 13
Width: 830
Flags: HMW
LayerCount: 2
Fore
SplineSet
440 440 m 1
 506 440 560 466 560 545 c 0
 560 624 516 645 440 645 c 1
 450 750 l 1
 641 750 750 705 750 565 c 0
 750 435 661 380 450 380 c 1
 440 440 l 1
140 750 m 1
 325 750 l 1
 325 0 l 1
 140 0 l 1
 140 750 l 1
30 750 m 1
 140 750 l 1
 140 645 l 1
 30 645 l 1
 30 750 l 1
30 105 m 1
 140 105 l 1
 140 0 l 1
 30 0 l 1
 30 105 l 1
270 440 m 1
 480 440 l 1
 480 335 l 1
 270 335 l 1
 270 440 l 1
270 750 m 1
 450 750 l 1
 440 645 l 1
 270 645 l 1
 270 750 l 1
270 105 m 1
 450 105 l 1
 470 0 l 1
 270 0 l 1
 270 105 l 1
450 105 m 1
 536 105 580 146 580 225 c 4
 580 314 516 335 450 335 c 1
 470 395 l 1
 681 395 780 340 780 210 c 0
 780 50 671 0 470 0 c 1
 450 105 l 1
EndSplineSet
EndChar

StartChar: C
Encoding: 67 67 14
Width: 855
Flags: HMW
LayerCount: 2
Fore
SplineSet
640 640 m 17
 720 755 l 9
 720 550 l 1
 640 640 l 17
720 475 m 1
 720 755 l 1
 825 755 l 1
 825 475 l 1
 720 475 l 1
755 475 m 1
 710 475 l 1
 690 577 604 662 480 662 c 0
 346 662 255 547 255 375 c 5
 45 375 l 1
 45 598 222 770 465 770 c 0
 668 770 755 578 755 475 c 1
835 295 m 1
 825 122 683 -20 460 -20 c 0
 177 -20 45 152 45 375 c 1
 255 375 l 5
 255 203 336 89 470 89 c 0
 624 89 710 173 720 295 c 1
 835 295 l 1
EndSplineSet
EndChar

StartChar: D
Encoding: 68 68 15
Width: 895
Flags: HMW
LayerCount: 2
Fore
SplineSet
30 105 m 1
 140 105 l 1
 140 0 l 1
 30 0 l 1
 30 105 l 1
30 750 m 1
 140 750 l 1
 140 645 l 1
 30 645 l 1
 30 750 l 1
140 750 m 1
 325 750 l 1
 325 0 l 1
 140 0 l 1
 140 750 l 1
440 0 m 2
 295 0 l 1
 295 105 l 1
 440 105 l 2
 594 105 640 193 640 375 c 4
 640 557 584 645 440 645 c 2
 295 645 l 1
 295 750 l 1
 440 750 l 2
 723 750 850 588 850 375 c 0
 850 162 713 0 440 0 c 2
EndSplineSet
EndChar

StartChar: E
Encoding: 69 69 16
Width: 775
Flags: HMW
LayerCount: 2
Fore
SplineSet
350 428 m 17
 427 428 470 476 470 543 c 9
 470 428 l 1
 350 428 l 17
470 228 m 17
 470 295 427 348 350 348 c 9
 470 348 l 1
 470 228 l 17
495 105 m 17
 632 105 655 158 655 295 c 13
 655 105 l 5
 495 105 l 17
470 228 m 1
 470 348 l 1
 545 348 l 1
 545 228 l 1
 470 228 l 1
470 428 m 1
 470 543 l 1
 545 543 l 1
 545 428 l 1
 470 428 l 1
655 105 m 5
 655 295 l 5
 755 295 l 1
 755 105 l 1
 655 105 l 5
645 485 m 5
 645 645 l 5
 745 645 l 1
 745 485 l 1
 645 485 l 5
305 105 m 1
 755 105 l 1
 755 0 l 1
 305 0 l 1
 305 105 l 1
305 750 m 1
 745 750 l 1
 745 645 l 1
 305 645 l 1
 305 750 l 1
305 428 m 1
 545 428 l 1
 545 348 l 1
 305 348 l 1
 305 428 l 1
30 105 m 1
 140 105 l 1
 140 0 l 1
 30 0 l 1
 30 105 l 1
30 750 m 1
 140 750 l 1
 140 645 l 1
 30 645 l 1
 30 750 l 1
140 750 m 1
 325 750 l 1
 325 0 l 1
 140 0 l 1
 140 750 l 1
645 485 m 21
 645 602 622 645 505 645 c 9
 645 645 l 5
 645 485 l 21
EndSplineSet
EndChar

StartChar: F
Encoding: 70 70 17
Width: 765
Flags: HMW
LayerCount: 2
Fore
SplineSet
325 105 m 1
 445 105 l 1
 445 0 l 1
 325 0 l 1
 325 105 l 1
340 418 m 17
 417 418 470 466 470 533 c 9
 470 418 l 1
 340 418 l 17
470 208 m 17
 470 275 417 328 340 328 c 9
 470 328 l 1
 470 208 l 17
470 208 m 1
 470 328 l 1
 545 328 l 1
 545 208 l 1
 470 208 l 1
470 418 m 1
 470 533 l 1
 545 533 l 1
 545 418 l 1
 470 418 l 1
635 475 m 5
 635 645 l 5
 735 645 l 1
 735 475 l 1
 635 475 l 5
325 750 m 1
 735 750 l 1
 735 645 l 1
 325 645 l 1
 325 750 l 1
305 418 m 1
 545 418 l 1
 545 328 l 1
 305 328 l 1
 305 418 l 1
30 105 m 1
 140 105 l 1
 140 0 l 1
 30 0 l 1
 30 105 l 1
30 750 m 1
 140 750 l 1
 140 645 l 1
 30 645 l 1
 30 750 l 1
140 750 m 1
 325 750 l 1
 325 0 l 1
 140 0 l 1
 140 750 l 1
635 475 m 21
 635 592 612 645 495 645 c 9
 635 645 l 5
 635 475 l 21
EndSplineSet
EndChar

StartChar: G
Encoding: 71 71 18
Width: 925
Flags: HMW
LayerCount: 2
Fore
SplineSet
630 640 m 17
 710 755 l 9
 710 550 l 1
 630 640 l 17
710 475 m 1
 710 755 l 1
 805 755 l 1
 805 475 l 1
 710 475 l 1
745 475 m 1
 700 475 l 1
 680 577 594 662 470 662 c 0
 356 662 255 547 255 375 c 1
 45 375 l 1
 45 598 212 770 455 770 c 0
 668 770 745 578 745 475 c 1
815 215 m 1
 805 122 663 -20 450 -20 c 0
 202 -20 45 132 45 375 c 1
 255 375 l 5
 255 203 326 85 445 85 c 4
 549 85 590 123 630 185 c 1
 815 215 l 1
630 310 m 1
 815 305 l 1
 815 215 l 1
 630 185 l 1
 630 310 l 1
485 390 m 1
 915 390 l 1
 915 285 l 1
 485 285 l 1
 485 390 l 1
EndSplineSet
EndChar

StartChar: H
Encoding: 72 72 19
Width: 960
Flags: HMW
LayerCount: 2
Fore
SplineSet
325 440 m 1
 635 440 l 1
 635 335 l 1
 325 335 l 1
 325 440 l 1
515 105 m 1
 635 105 l 1
 635 0 l 1
 515 0 l 1
 515 105 l 1
820 105 m 5
 930 105 l 5
 930 0 l 5
 820 0 l 5
 820 105 l 5
30 105 m 1
 140 105 l 1
 140 0 l 1
 30 0 l 1
 30 105 l 1
325 105 m 1
 445 105 l 1
 445 0 l 1
 325 0 l 1
 325 105 l 1
515 750 m 1
 635 750 l 1
 635 645 l 1
 515 645 l 1
 515 750 l 1
820 750 m 5
 930 750 l 5
 930 645 l 5
 820 645 l 5
 820 750 l 5
30 750 m 1
 140 750 l 1
 140 645 l 1
 30 645 l 1
 30 750 l 1
325 750 m 1
 445 750 l 1
 445 645 l 1
 325 645 l 1
 325 750 l 1
635 750 m 1
 820 750 l 5
 820 0 l 5
 635 0 l 1
 635 750 l 1
140 750 m 1
 325 750 l 1
 325 0 l 1
 140 0 l 1
 140 750 l 1
EndSplineSet
EndChar

StartChar: I
Encoding: 73 73 20
Width: 495
Flags: HMW
LayerCount: 2
Fore
SplineSet
30 105 m 1
 150 105 l 1
 150 0 l 1
 30 0 l 1
 30 105 l 1
335 105 m 1
 465 105 l 1
 465 0 l 1
 335 0 l 1
 335 105 l 1
30 750 m 1
 150 750 l 1
 150 645 l 5
 30 645 l 5
 30 750 l 1
335 750 m 1
 465 750 l 1
 465 645 l 5
 335 645 l 5
 335 750 l 1
150 750 m 1
 335 750 l 1
 335 0 l 1
 150 0 l 1
 150 750 l 1
EndSplineSet
EndChar

StartChar: J
Encoding: 74 74 21
Width: 666
Flags: HMW
LayerCount: 2
Fore
SplineSet
341 750 m 1
 526 750 l 1
 526 270 l 1
 341 240 l 1
 341 750 l 1
526 750 m 1
 646 750 l 1
 646 645 l 5
 526 645 l 5
 526 750 l 1
221 750 m 1
 341 750 l 1
 341 645 l 5
 221 645 l 5
 221 750 l 1
0 185 m 1
 160 120 l 1
 160 103 184 75 236 75 c 0
 307 75 341 110 341 240 c 1
 526 270 l 1
 526 100 397 -20 236 -20 c 0
 59 -20 0 95 0 185 c 1
223 221 m 0
 223 141 160 148 160 120 c 1
 0 185 l 1
 0 267 59 320 119 320 c 0
 176 320 223 284 223 221 c 0
EndSplineSet
EndChar

StartChar: K
Encoding: 75 75 22
Width: 940
Flags: HMW
LayerCount: 2
Fore
SplineSet
30 105 m 1
 140 105 l 1
 140 0 l 1
 30 0 l 1
 30 105 l 1
325 105 m 1
 445 105 l 1
 445 0 l 1
 325 0 l 1
 325 105 l 1
30 750 m 1
 140 750 l 1
 140 645 l 1
 30 645 l 1
 30 750 l 1
325 750 m 1
 445 750 l 1
 445 645 l 1
 325 645 l 1
 325 750 l 1
140 750 m 1
 325 750 l 1
 325 0 l 1
 140 0 l 1
 140 750 l 1
300 217 m 1
 147 217 l 1
 721 718 l 1
 866 718 l 1
 300 217 l 1
525 105 m 5
 955 105 l 1
 955 0 l 1
 525 0 l 5
 525 105 l 5
900 645 m 1
 520 645 l 1
 520 750 l 1
 900 750 l 1
 900 645 l 1
927 0 m 1
 687 0 l 1
 389 420 l 1
 560 490 l 1
 927 0 l 1
EndSplineSet
EndChar

StartChar: L
Encoding: 76 76 23
Width: 760
Flags: HMW
LayerCount: 2
Fore
SplineSet
325 750 m 1
 455 750 l 1
 455 645 l 1
 325 645 l 1
 325 750 l 1
440 105 m 21
 557 105 640 148 640 315 c 13
 640 105 l 5
 440 105 l 21
640 105 m 5
 640 315 l 5
 730 315 l 1
 730 105 l 1
 640 105 l 5
325 105 m 1
 730 105 l 1
 730 0 l 1
 325 0 l 1
 325 105 l 1
30 105 m 1
 140 105 l 1
 140 0 l 1
 30 0 l 1
 30 105 l 1
30 750 m 1
 140 750 l 1
 140 645 l 1
 30 645 l 1
 30 750 l 1
140 750 m 1
 325 750 l 1
 325 0 l 1
 140 0 l 1
 140 750 l 1
EndSplineSet
EndChar

StartChar: M
Encoding: 77 77 24
Width: 1145
Flags: HMW
LayerCount: 2
Fore
SplineSet
631 79 m 5
 476 -10 l 1
 228 750 l 1
 419 750 l 1
 631 79 l 5
610 -10 m 1
 476 -10 l 1
 756 750 l 1
 865 750 l 1
 610 -10 l 1
705 105 m 1
 1120 105 l 1
 1120 0 l 1
 705 0 l 1
 705 105 l 1
25 105 m 1
 370 105 l 1
 370 0 l 1
 25 0 l 1
 25 105 l 1
980 750 m 1
 1090 750 l 1
 1090 645 l 1
 980 645 l 1
 980 750 l 1
55 750 m 1
 170 750 l 1
 170 645 l 1
 55 645 l 1
 55 750 l 1
800 750 m 1
 980 750 l 1
 1010 0 l 1
 825 0 l 1
 800 750 l 1
170 750 m 1
 280 750 l 1
 250 0 l 1
 135 0 l 1
 170 750 l 1
EndSplineSet
EndChar

StartChar: N
Encoding: 78 78 25
Width: 935
Flags: HMW
LayerCount: 2
Fore
SplineSet
820 -10 m 1
 715 -10 l 1
 755 85 l 1
 820 85 l 1
 820 -10 l 1
595 750 m 1
 705 750 l 1
 705 645 l 1
 595 645 l 1
 595 750 l 1
808 195 m 5
 715 -10 l 1
 80 750 l 1
 315 750 l 1
 808 195 l 5
30 105 m 1
 135 105 l 1
 135 0 l 1
 30 0 l 1
 30 105 l 1
250 105 m 1
 365 105 l 1
 365 0 l 1
 250 0 l 1
 250 105 l 1
820 750 m 1
 925 750 l 1
 925 645 l 1
 820 645 l 1
 820 750 l 1
30 750 m 1
 135 750 l 1
 135 645 l 1
 30 645 l 1
 30 750 l 1
705 750 m 1
 820 750 l 1
 820 -10 l 1
 705 50 l 1
 705 750 l 1
135 750 m 1
 250 750 l 1
 250 0 l 1
 135 0 l 1
 135 750 l 1
EndSplineSet
EndChar

StartChar: O
Encoding: 79 79 26
Width: 890
Flags: HMW
LayerCount: 2
Fore
SplineSet
255 375 m 0
 255 193 311 80 445 80 c 0
 589 80 635 193 635 375 c 4
 635 557 579 670 445 670 c 0
 311 670 255 557 255 375 c 0
45 375 m 0
 45 588 182 770 445 770 c 0
 708 770 845 588 845 375 c 0
 845 162 698 -20 445 -20 c 0
 182 -20 45 162 45 375 c 0
EndSplineSet
EndChar

StartChar: P
Encoding: 80 80 27
Width: 765
Flags: HMW
LayerCount: 2
Fore
SplineSet
325 105 m 1
 455 105 l 1
 455 0 l 1
 325 0 l 1
 325 105 l 1
415 405 m 1
 491 405 535 441 535 530 c 0
 535 619 491 645 415 645 c 1
 425 750 l 5
 626 750 735 680 735 530 c 0
 735 380 626 300 425 300 c 5
 415 405 l 1
140 750 m 1
 325 750 l 1
 325 0 l 1
 140 0 l 1
 140 750 l 1
30 750 m 1
 140 750 l 1
 140 645 l 1
 30 645 l 1
 30 750 l 1
30 105 m 1
 140 105 l 1
 140 0 l 1
 30 0 l 1
 30 105 l 1
325 405 m 1
 415 405 l 1
 425 300 l 1
 325 300 l 1
 325 405 l 1
325 750 m 1
 425 750 l 1
 415 645 l 1
 325 645 l 1
 325 750 l 1
EndSplineSet
EndChar

StartChar: Q
Encoding: 81 81 28
Width: 890
Flags: HMW
LayerCount: 2
Fore
SplineSet
334 65 m 1
 279 100 l 1
 239 121 273 353 432 353 c 4
 607 353 611 3 708 3 c 0
 760 3 785 36 795 82 c 1
 885 82 l 1
 885 82 l 1
 874 -32 794 -145 700 -145 c 0
 521 -145 586 180 404 180 c 0
 324 180 284 113 334 65 c 1
250 375 m 0
 250 193 311 80 445 80 c 0
 589 80 640 193 640 375 c 0
 640 557 579 670 445 670 c 0
 311 670 250 557 250 375 c 0
45 375 m 0
 45 588 182 770 445 770 c 0
 708 770 845 588 845 375 c 0
 845 162 698 -20 445 -20 c 0
 182 -20 45 162 45 375 c 0
EndSplineSet
EndChar

StartChar: R
Encoding: 82 82 29
Width: 868
Flags: HMW
LayerCount: 2
Fore
SplineSet
465 430 m 1
 521 430 575 466 575 545 c 0
 575 624 521 645 465 645 c 1
 465 750 l 1
 686 750 765 665 765 545 c 0
 765 445 696 364 465 364 c 1
 465 430 l 1
325 750 m 1
 465 750 l 1
 465 645 l 1
 325 645 l 1
 325 750 l 1
325 430 m 1
 485 430 l 1
 485 320 l 1
 325 320 l 1
 325 430 l 1
30 105 m 1
 140 105 l 1
 140 0 l 1
 30 0 l 1
 30 105 l 1
30 750 m 1
 140 750 l 1
 140 645 l 1
 30 645 l 1
 30 750 l 1
140 750 m 1
 325 750 l 1
 325 0 l 1
 140 0 l 1
 140 750 l 1
325 105 m 1
 435 105 l 1
 435 0 l 1
 325 0 l 1
 325 105 l 1
903 120 m 1
 861 44 801 -10 685 -10 c 0
 432.03125 -10 621.256835938 320 395 320 c 1
 475 381 l 1
 828.294921875 381 675.228515625 114 768 114 c 0
 789 114 817 137 839 173 c 1
 903 120 l 1
EndSplineSet
Substitution2: "'ss01' Style Set 1 lookup 2-1" uniFFFD
EndChar

StartChar: S
Encoding: 83 83 30
Width: 670
Flags: HMW
LayerCount: 2
Fore
SplineSet
177 103 m 17
 115 -5 l 9
 115 165 l 1
 177 103 l 17
115 275 m 1
 115 -5 l 1
 20 -5 l 1
 20 275 l 1
 115 275 l 1
105 170 m 1
 115 275 l 1
 115 176 196 81 320 81 c 0
 426 81 470 136 470 195 c 1
 650 210 l 1
 650 70 531 -20 350 -20 c 0
 164 -20 105 90 105 170 c 1
40 549 m 5
 216 588 l 5
 216 438 650 520 650 210 c 5
 470 195 l 5
 470 375 40 259 40 549 c 5
473 652 m 17
 535 750 l 9
 535 590 l 1
 473 652 l 17
535 485 m 1
 535 750 l 1
 630 750 l 1
 630 485 l 1
 535 485 l 1
545 584 m 1
 535 485 l 1
 535 604 424 664 340 664 c 0
 254 664 216 637 216 588 c 1
 40 549 l 1
 40 699 179 765 310 765 c 0
 456 765 545 674 545 584 c 1
EndSplineSet
EndChar

StartChar: T
Encoding: 84 84 31
Width: 735
Flags: HMW
LayerCount: 2
Fore
SplineSet
485 650 m 13
 625 650 l 1
 625 465 l 17
 625 612 592 650 485 650 c 13
625 650 m 1
 725 650 l 1
 725 465 l 1
 625 465 l 1
 625 650 l 1
250 650 m 21
 143 650 110 612 110 465 c 9
 110 650 l 1
 250 650 l 21
110 650 m 1
 110 465 l 1
 10 465 l 1
 10 650 l 1
 110 650 l 1
290 750 m 1
 290 650 l 1
 10 650 l 1
 10 750 l 1
 290 750 l 1
445 105 m 1
 590 105 l 1
 590 0 l 1
 445 0 l 1
 445 105 l 1
445 750 m 1
 725 750 l 1
 725 650 l 1
 445 650 l 1
 445 750 l 1
145 105 m 1
 290 105 l 1
 290 0 l 1
 145 0 l 1
 145 105 l 1
275 750 m 1
 460 750 l 1
 460 0 l 1
 275 0 l 1
 275 750 l 1
EndSplineSet
EndChar

StartChar: U
Encoding: 85 85 32
Width: 870
Flags: HMW
LayerCount: 2
Fore
SplineSet
115 750 m 1
 300 750 l 1
 300 330 l 1
 115 310 l 1
 115 750 l 1
645 750 m 1
 755 750 l 1
 755 300 l 1
 645 300 l 1
 645 750 l 1
300 750 m 1
 420 750 l 1
 420 645 l 1
 300 645 l 1
 300 750 l 1
5 750 m 1
 115 750 l 1
 115 645 l 1
 5 645 l 1
 5 750 l 1
755 750 m 1
 865 750 l 1
 865 645 l 1
 755 645 l 1
 755 750 l 1
520 750 m 1
 645 750 l 1
 645 645 l 1
 520 645 l 1
 520 750 l 1
645 300 m 1
 755 300 l 1
 755 95 623 -20 425 -20 c 4
 172 -20 115 117 115 310 c 1
 300 330 l 1
 300 188 336 92 450 92 c 0
 554 92 645 148 645 300 c 1
EndSplineSet
EndChar

StartChar: V
Encoding: 86 86 33
Width: 920
Flags: HMW
LayerCount: 2
Fore
SplineSet
385 -15 m 1
 385 91 l 1
 529 91 l 1
 529 -15 l 1
 385 -15 l 1
440 645 m 1
 -10 645 l 1
 -10 750 l 1
 440 750 l 1
 440 645 l 1
930 645 m 1
 610 645 l 1
 610 750 l 1
 930 750 l 1
 930 645 l 1
545 65 m 1
 385 -15 l 1
 80 750 l 1
 300 750 l 1
 545 65 l 1
544 -15 m 5
 430 -15 l 1
 746 750 l 1
 870 750 l 5
 544 -15 l 5
EndSplineSet
EndChar

StartChar: W
Encoding: 87 87 34
Width: 1250
Flags: HMW
LayerCount: 2
Fore
SplineSet
1255 645 m 1
 935 645 l 1
 935 750 l 1
 1255 750 l 1
 1255 645 l 1
936 75 m 1
 811 -10 l 1
 525 750 l 1
 715 750 l 1
 936 75 l 1
925 -10 m 1
 811 -10 l 1
 1075 750 l 1
 1188 750 l 1
 925 -10 l 1
385 645 m 1
 -5 645 l 1
 -5 750 l 1
 385 750 l 1
 385 645 l 1
835 645 m 1
 485 645 l 1
 485 750 l 1
 835 750 l 1
 835 645 l 1
465 125 m 1
 330 -10 l 1
 55 750 l 1
 245 750 l 1
 465 125 l 1
445 -10 m 5
 330 -10 l 1
 613 652 l 1
 726 652 l 5
 445 -10 l 5
EndSplineSet
EndChar

StartChar: X
Encoding: 88 88 35
Width: 900
Flags: HMW
LayerCount: 2
Fore
SplineSet
525 377 m 1
 392 377 l 1
 721 728 l 1
 851 728 l 1
 525 377 l 1
159 20 m 1
 26 20 l 1
 397 417 l 1
 527 417 l 1
 159 20 l 1
460 105 m 5
 900 105 l 1
 900 0 l 1
 460 0 l 5
 460 105 l 5
0 105 m 1
 340 105 l 1
 340 0 l 1
 0 0 l 1
 0 105 l 1
475 645 m 1
 5 645 l 1
 5 750 l 1
 475 750 l 1
 475 645 l 1
900 645 m 1
 545 645 l 1
 545 750 l 1
 900 750 l 1
 900 645 l 1
826 70 m 1
 646 0 l 1
 115 680 l 1
 291 750 l 1
 826 70 l 1
EndSplineSet
EndChar

StartChar: Y
Encoding: 89 89 36
Width: 845
Flags: HMW
LayerCount: 2
Fore
SplineSet
235 105 m 1
 345 105 l 1
 345 0 l 1
 235 0 l 1
 235 105 l 1
530 105 m 1
 650 105 l 1
 650 0 l 1
 530 0 l 1
 530 105 l 1
345 350 m 1
 530 350 l 1
 530 0 l 1
 345 0 l 1
 345 350 l 1
520 317 m 1
 401 317 l 1
 691 748 l 1
 811 748 l 1
 520 317 l 1
430 645 m 5
 -10 645 l 5
 -10 750 l 5
 430 750 l 5
 430 645 l 5
855 645 m 1
 535 645 l 1
 535 750 l 1
 855 750 l 1
 855 645 l 1
529 334 m 1
 351 270 l 1
 50 750 l 1
 290 750 l 1
 529 334 l 1
EndSplineSet
EndChar

StartChar: Z
Encoding: 90 90 37
Width: 775
Flags: HMW
LayerCount: 2
Fore
SplineSet
25 135 m 1
 175 135 l 5
 175 62 l 5
 25 62 l 1
 25 135 l 1
705 645 m 1
 705 615 l 1
 525 615 l 1
 525 645 l 1
 705 645 l 1
305 645 m 17
 198 645 155 602 155 485 c 9
 155 645 l 1
 305 645 l 17
485 105 m 17
 592 105 635 148 635 285 c 9
 635 105 l 1
 485 105 l 17
515 655 m 1
 705 615 l 1
 215 95 l 5
 25 135 l 1
 515 655 l 1
635 105 m 1
 635 285 l 1
 735 285 l 1
 735 105 l 1
 635 105 l 1
155 485 m 1
 55 485 l 1
 55 645 l 1
 155 645 l 1
 155 485 l 1
25 105 m 1
 735 105 l 1
 735 0 l 1
 25 0 l 1
 25 105 l 1
705 750 m 1
 705 645 l 1
 55 645 l 1
 55 750 l 1
 705 750 l 1
EndSplineSet
EndChar

StartChar: a
Encoding: 97 97 38
Width: 651
VWidth: 1155
Flags: HMW
LayerCount: 2
Fore
SplineSet
314 294 m 5
 334 229 l 5
 228 229 202 178 202 141 c 4
 202 104 225 79 260 79 c 4
 308 79 346 123 346 194 c 5
 395 174 l 5
 395 50 321 -15 200 -15 c 4
 81 -15 15 34 15 128 c 4
 15 222 102 294 314 294 c 5
516 352 m 5
 516 126 l 5
 346 78 l 5
 346 372 l 5
 516 352 l 5
45 383 m 5
 45 470 157 535 288 535 c 4
 438 535 516 493 516 352 c 5
 346 362 l 5
 346 429 313 464 263 464 c 4
 239 464 207 457 207 444 c 5
 45 383 l 5
314 294 m 5
 448 294 l 5
 448 229 l 5
 334 229 l 5
 314 294 l 5
656 98 m 5
 623 8 579 -15 496 -15 c 4
 419 -15 356 29 356 88 c 5
 516 126 l 5
 516 106 528 82 552 82 c 4
 572 82 582 105 594 132 c 5
 656 98 l 5
229 374 m 4
 229 330 188 300 134 300 c 4
 78 300 45 329 45 383 c 5
 207 444 l 5
 207 431 229 422 229 374 c 4
EndSplineSet
EndChar

StartChar: b
Encoding: 98 98 39
Width: 688
VWidth: 1155
Flags: HMW
LayerCount: 2
Fore
SplineSet
265 260 m 4
 265 166 302 82 373 82 c 4
 437 82 473 166 473 260 c 4
 473 354 437 438 373 438 c 4
 302 438 265 354 265 260 c 4
236 260 m 4
 236 412 280 539 431 539 c 4
 560 539 653 440 653 260 c 4
 653 80 550 -20 421 -20 c 4
 280 -20 236 108 236 260 c 4
5 85 m 5
 95 85 l 5
 95 0 l 5
 5 0 l 5
 5 85 l 5
5 780 m 5
 95 780 l 5
 95 695 l 5
 5 695 l 5
 5 780 l 5
95 780 m 5
 265 780 l 5
 265 0 l 5
 95 0 l 5
 95 780 l 5
EndSplineSet
EndChar

StartChar: c
Encoding: 99 99 40
Width: 605
VWidth: 1155
Flags: HMW
LayerCount: 2
Back
SplineSet
230 270 m 4
 230 146 255 60 324 60 c 4
 393 60 418 146 418 250 c 4
 418 374 393 460 324 460 c 4
 255 460 230 374 230 270 c 4
45 245 m 4
 45 405 133 540 324 540 c 4
 515 540 603 410 603 270 c 4
 603 110 515 -20 324 -20 c 4
 133 -20 45 105 45 245 c 4
EndSplineSet
Fore
SplineSet
35 250 m 5
 230 270 l 1
 230 156 241 59 340 59 c 0
 403 59 447 93 472 173 c 1
 563 173 l 1
 537 66 469 -20 328 -20 c 4
 117 -20 35 110 35 250 c 5
575 373 m 1
 417 428 l 1
 417 446 392 464 354 464 c 0
 269 464 230 384 230 270 c 1
 35 250 l 5
 35 400 133 540 344 540 c 4
 486 540 575 450 575 373 c 1
417 428 m 1
 575 373 l 1
 575 305 520 260 471 260 c 0
 414 260 374 296 374 353 c 0
 374 399 417 406 417 428 c 1
EndSplineSet
EndChar

StartChar: d
Encoding: 100 100 41
Width: 688
VWidth: 1155
Flags: HMW
LayerCount: 2
Back
SplineSet
429 260 m 4
 429 374 372 458 301 458 c 4
 237 458 181 374 181 260 c 4
 181 146 237 62 301 62 c 4
 372 62 429 146 429 260 c 4
458 260 m 4
 458 108 404 -15 273 -15 c 4
 164 -15 41 80 41 260 c 4
 41 440 154 534 263 534 c 4
 404 534 458 412 458 260 c 4
649 65 m 5
 649 0 l 5
 559 0 l 5
 559 65 l 5
 649 65 l 5
559 780 m 5
 559 0 l 5
 429 0 l 5
 429 780 l 5
 559 780 l 5
429 780 m 5
 429 715 l 5
 339 715 l 5
 339 780 l 5
 429 780 l 5
EndSplineSet
Fore
SplineSet
423 260 m 4
 423 354 386 438 315 438 c 4
 251 438 215 354 215 260 c 4
 215 166 251 82 315 82 c 4
 386 82 423 166 423 260 c 4
452 260 m 4
 452 108 408 -20 267 -20 c 4
 138 -20 35 80 35 260 c 4
 35 440 148 539 277 539 c 4
 418 539 452 412 452 260 c 4
683 85 m 5
 683 0 l 5
 593 0 l 5
 593 85 l 5
 683 85 l 5
423 780 m 5
 423 695 l 5
 333 695 l 5
 333 780 l 5
 423 780 l 5
593 780 m 5
 593 0 l 5
 423 0 l 5
 423 780 l 5
 593 780 l 5
EndSplineSet
EndChar

StartChar: e
Encoding: 101 101 42
Width: 609
VWidth: 1155
Flags: HMW
LayerCount: 2
Back
SplineSet
220 270 m 4
 220 146 245 60 314 60 c 4
 383 60 408 146 408 250 c 4
 408 374 383 460 314 460 c 4
 245 460 220 374 220 270 c 4
35 245 m 4
 35 405 123 540 314 540 c 4
 505 540 593 410 593 270 c 4
 593 110 505 -20 314 -20 c 4
 123 -20 35 105 35 245 c 4
EndSplineSet
Fore
SplineSet
35 250 m 5
 216 275 l 5
 216 151 236 69 325 69 c 4
 378 69 437 103 462 173 c 5
 558 173 l 5
 532 66 444 -20 313 -20 c 4
 132 -20 35 110 35 250 c 5
172 329 m 5
 486 329 l 5
 486 246 l 5
 172 246 l 5
 172 329 l 5
569 246 m 5
 399 246 l 5
 399 349 403 461 319 461 c 4
 240 461 216 374 216 270 c 5
 35 250 l 5
 35 410 139 540 320 540 c 4
 539 540 569 375 569 246 c 5
EndSplineSet
EndChar

StartChar: f
Encoding: 102 102 43
Width: 445
VWidth: 1155
Flags: HMW
LayerCount: 2
Fore
SplineSet
580 664 m 1
 413 709 l 1
 413 717 401 725 379 725 c 0
 299 725 280 677 280 550 c 1
 110 572 l 1
 110 703 207 800 357 800 c 0
 488 800 580 751 580 664 c 1
383 646 m 0
 383 693 413 698 413 709 c 1
 580 664 l 1
 580 594 535 563 483 563 c 4
 421 563 383 591 383 646 c 0
20 85 m 1
 110 85 l 1
 110 0 l 1
 20 0 l 1
 20 85 l 1
280 85 m 1
 400 85 l 1
 400 0 l 1
 280 0 l 1
 280 85 l 1
20 520 m 1
 420 520 l 1
 420 435 l 1
 20 435 l 1
 20 520 l 1
110 572 m 1
 280 550 l 1
 280 0 l 1
 110 0 l 1
 110 572 l 1
EndSplineSet
EndChar

StartChar: g
Encoding: 103 103 44
Width: 697
VWidth: 1155
Flags: HMW
LayerCount: 2
Back
SplineSet
250 22 m 1
 190 -4 180 -70 180 -102 c 0
 180 -170 220 -203 316 -203 c 0
 400 -203 469 -169 469 -107 c 1
 580 -82 l 1
 580 -193 480 -265 300 -265 c 0
 137 -265 45 -220 45 -135 c 0
 45 -44 155 12 200 12 c 1
 250 22 l 1
77 84 m 1
 170 116 l 1
 170 89 207 89 262 89 c 0
 287 89 345 90 373 90 c 0
 488 90 580 54 580 -82 c 1
 469 -107 l 1
 469 -33 425 -9 370 -9 c 0
 349 -9 298 -9 276 -9 c 0
 186 -9 77 -8 77 84 c 1
290 168 m 1
 247 168 170 150 170 116 c 1
 77 84 l 1
 77 158 177 197 292 197 c 1
 290 168 l 1
647 439 m 5
 550 477 l 5
 550 484 545 487 534 487 c 4
 506 487 463 467 443 380 c 5
 403 402 l 5
 423 493 483 535 543 535 c 4
 614 535 647 491 647 439 c 5
526 428 m 4
 526 462 550 463 550 477 c 5
 647 439 l 5
 647 400 614 374 584 374 c 4
 551 374 526 398 526 428 c 4
70 345 m 0
 70 455 158 535 289 535 c 0
 420 535 508 455 508 345 c 0
 508 235 420 155 289 155 c 0
 158 155 70 235 70 345 c 0
205 345 m 0
 205 271 220 205 289 205 c 0
 358 205 373 271 373 345 c 0
 373 419 358 485 289 485 c 0
 220 485 205 419 205 345 c 0
EndSplineSet
Fore
SplineSet
697 444 m 1
 590 472 l 1
 590 479 585 482 574 482 c 0
 546 482 503 447 493 380 c 1
 433 402 l 1
 453 493 503 540 573 540 c 0
 654 540 697 506 697 444 c 1
561 423 m 0
 561 457 590 463 590 472 c 1
 697 444 l 1
 697 395 664 364 624 364 c 0
 581 364 561 393 561 423 c 0
250 22 m 1
 190 -4 160 -50 160 -102 c 0
 160 -160 220 -183 296 -183 c 0
 380 -183 449 -159 449 -97 c 1
 600 -62 l 1
 600 -203 460 -265 280 -265 c 0
 97 -265 5 -220 5 -135 c 0
 5 -44 135 12 180 12 c 1
 250 22 l 1
57 84 m 1
 170 121 l 1
 170 100 187 99 242 99 c 0
 267 99 385 100 413 100 c 0
 528 100 600 54 600 -62 c 1
 449 -97 l 1
 449 -53 415 -39 350 -39 c 0
 329 -39 278 -39 256 -39 c 0
 166 -39 57 -8 57 84 c 1
290 168 m 1
 247 168 170 145 170 121 c 1
 57 84 l 1
 57 158 177 217 292 207 c 5
 290 168 l 1
50 345 m 0
 50 455 138 540 289 540 c 0
 440 540 528 455 528 345 c 0
 528 235 440 150 289 150 c 0
 138 150 50 235 50 345 c 0
225 345 m 0
 225 271 240 220 289 220 c 0
 338 220 353 271 353 345 c 0
 353 419 338 470 289 470 c 0
 240 470 225 419 225 345 c 0
EndSplineSet
EndChar

StartChar: h
Encoding: 104 104 45
Width: 720
VWidth: 1155
Flags: HMW
LayerCount: 2
Fore
SplineSet
610 85 m 1
 700 85 l 1
 700 0 l 1
 610 0 l 1
 610 85 l 1
370 85 m 1
 440 85 l 1
 440 0 l 1
 370 0 l 1
 370 85 l 1
440 353 m 1
 610 369 l 1
 610 0 l 1
 440 0 l 1
 440 353 l 1
265 85 m 1
 335 85 l 1
 335 0 l 1
 265 0 l 1
 265 85 l 1
95 780 m 5
 265 780 l 5
 265 0 l 1
 95 0 l 1
 95 780 l 5
5 780 m 5
 95 780 l 5
 95 695 l 5
 5 695 l 5
 5 780 l 5
5 85 m 1
 95 85 l 1
 95 0 l 1
 5 0 l 1
 5 85 l 1
440 353 m 1
 440 417 426 443 375 443 c 0
 307 443 265 386 265 283 c 1
 226 283 l 1
 226 385 265 540 448 540 c 0
 565 540 610 476 610 369 c 1
 440 353 l 1
EndSplineSet
EndChar

StartChar: i
Encoding: 105 105 46
Width: 370
VWidth: 1155
Flags: HMW
LayerCount: 2
Fore
SplineSet
85 700 m 0
 85 752 130 795 185 795 c 0
 240 795 285 752 285 700 c 0
 285 648 240 605 185 605 c 4
 130 605 85 648 85 700 c 0
15 85 m 1
 105 85 l 1
 105 0 l 1
 15 0 l 1
 15 85 l 1
275 85 m 1
 365 85 l 1
 365 0 l 1
 275 0 l 1
 275 85 l 1
15 520 m 1
 105 520 l 1
 105 435 l 1
 15 435 l 1
 15 520 l 1
105 520 m 1
 275 520 l 1
 275 0 l 1
 105 0 l 1
 105 520 l 1
EndSplineSet
EndChar

StartChar: j
Encoding: 106 106 47
Width: 340
VWidth: 1155
Flags: HMW
LayerCount: 2
Back
SplineSet
-125 -131 m 1
 0 -180 l 1
 0 -192 12 -207 36 -207 c 0
 126 -207 100 -23 100 104 c 1
 230 11 l 1
 230 -120 183 -262 33 -262 c 0
 -88 -262 -125 -198 -125 -131 c 1
32 -113 m 0
 32 -163 0 -165 0 -180 c 1
 -125 -131 l 1
 -125 -78 -88 -45 -43 -45 c 0
 2 -45 32 -75 32 -113 c 0
75 700 m 0
 75 744 108 780 160 780 c 0
 212 780 245 744 245 700 c 0
 245 656 212 620 160 620 c 0
 108 620 75 656 75 700 c 0
10 520 m 5
 100 520 l 5
 100 455 l 5
 10 455 l 5
 10 520 l 5
100 520 m 1
 230 520 l 1
 230 11 l 1
 100 104 l 1
 100 520 l 1
EndSplineSet
Fore
SplineSet
90 700 m 0
 90 752 135 795 190 795 c 0
 245 795 290 752 290 700 c 0
 290 648 245 605 190 605 c 0
 135 605 90 648 90 700 c 0
-150 -134 m 5
 27 -172 l 1
 27 -180 33 -185 51 -185 c 0
 131 -185 110 -57 110 70 c 1
 280 -32 l 1
 280 -163 183 -260 43 -260 c 0
 -78 -260 -150 -211 -150 -134 c 5
47 -116 m 0
 47 -163 27 -161 27 -172 c 1
 -150 -134 l 5
 -150 -74 -105 -33 -53 -33 c 0
 9 -33 47 -61 47 -116 c 0
280 -32 m 1
 110 70 l 1
 110 520 l 1
 280 520 l 1
 280 -32 l 1
20 520 m 1
 110 520 l 1
 110 435 l 1
 20 435 l 1
 20 520 l 1
EndSplineSet
EndChar

StartChar: k
Encoding: 107 107 48
Width: 706
VWidth: 1155
Flags: HMW
LayerCount: 2
Fore
SplineSet
364 85 m 1
 711 85 l 1
 711 0 l 1
 364 0 l 1
 364 85 l 1
677 425 m 1
 364 425 l 1
 364 520 l 1
 677 520 l 1
 677 425 l 1
693 30 m 1
 480 30 l 1
 257 291 l 1
 422 326 l 1
 693 30 l 1
395 280 m 1
 257 291 l 1
 504 460 l 5
 644 460 l 5
 395 280 l 1
5 85 m 1
 95 85 l 1
 95 0 l 1
 5 0 l 1
 5 85 l 1
265 85 m 1
 325 85 l 1
 325 0 l 1
 265 0 l 1
 265 85 l 1
5 780 m 1
 95 780 l 1
 95 695 l 1
 5 695 l 1
 5 780 l 1
95 780 m 1
 265 780 l 1
 265 0 l 1
 95 0 l 1
 95 780 l 1
EndSplineSet
EndChar

StartChar: l
Encoding: 108 108 49
Width: 360
VWidth: 1155
Flags: HMW
LayerCount: 2
Fore
SplineSet
5 85 m 5
 95 85 l 5
 95 0 l 5
 5 0 l 5
 5 85 l 5
265 85 m 5
 355 85 l 5
 355 0 l 5
 265 0 l 5
 265 85 l 5
5 780 m 5
 95 780 l 5
 95 695 l 5
 5 695 l 5
 5 780 l 5
95 780 m 5
 265 780 l 5
 265 0 l 5
 95 0 l 5
 95 780 l 5
EndSplineSet
EndChar

StartChar: m
Encoding: 109 109 50
Width: 1023
VWidth: 1155
Flags: HMW
LayerCount: 2
Fore
SplineSet
260 420 m 5
 100 420 l 1
 100 520 l 1
 260 520 l 5
 260 420 l 5
922 75 m 1
 1003 75 l 1
 1003 0 l 1
 922 0 l 1
 922 75 l 1
679 75 m 1
 752 75 l 1
 752 0 l 1
 679 0 l 1
 679 75 l 1
752 358 m 1
 922 369 l 1
 922 0 l 1
 752 0 l 1
 752 358 l 1
366 75 m 1
 426 75 l 1
 426 0 l 1
 366 0 l 1
 366 75 l 1
752 358 m 1
 752 412 743 448 697 448 c 0
 629 448 596 386 596 283 c 1
 557 283 l 1
 557 395 587 540 750 540 c 0
 877 540 922 476 922 369 c 1
 752 358 l 1
596 75 m 1
 657 75 l 1
 657 0 l 1
 596 0 l 1
 596 75 l 1
426 358 m 1
 596 369 l 1
 596 0 l 1
 426 0 l 1
 426 358 l 1
270 75 m 1
 343 75 l 1
 343 0 l 1
 270 0 l 1
 270 75 l 1
100 520 m 1
 270 420 l 1
 270 0 l 1
 100 0 l 1
 100 520 l 1
20 520 m 1
 100 520 l 1
 100 445 l 1
 20 445 l 1
 20 520 l 1
20 75 m 1
 100 75 l 1
 100 0 l 1
 20 0 l 1
 20 75 l 1
426 358 m 1
 426 412 417 448 371 448 c 0
 293 448 270 386 270 283 c 1
 231 283 l 1
 231 395 261 540 424 540 c 0
 551 540 596 476 596 369 c 1
 426 358 l 1
EndSplineSet
EndChar

StartChar: n
Encoding: 110 110 51
Width: 735
VWidth: 1155
Flags: HMW
LayerCount: 2
Fore
SplineSet
270 380 m 5
 110 380 l 1
 110 520 l 1
 270 520 l 5
 270 380 l 5
625 85 m 1
 715 85 l 1
 715 0 l 1
 625 0 l 1
 625 85 l 1
385 85 m 1
 455 85 l 1
 455 0 l 1
 385 0 l 1
 385 85 l 1
455 353 m 1
 625 369 l 1
 625 0 l 1
 455 0 l 1
 455 353 l 1
280 85 m 1
 350 85 l 1
 350 0 l 1
 280 0 l 1
 280 85 l 1
110 520 m 1
 280 380 l 1
 280 0 l 1
 110 0 l 1
 110 520 l 1
20 520 m 1
 110 520 l 1
 110 435 l 1
 20 435 l 1
 20 520 l 1
20 85 m 1
 110 85 l 1
 110 0 l 1
 20 0 l 1
 20 85 l 1
455 353 m 1
 455 417 441 443 390 443 c 0
 322 443 280 386 280 283 c 1
 241 283 l 1
 241 385 280 540 463 540 c 0
 580 540 625 476 625 369 c 1
 455 353 l 1
EndSplineSet
EndChar

StartChar: o
Encoding: 111 111 52
Width: 628
VWidth: 1155
Flags: HMW
LayerCount: 2
Fore
SplineSet
220 270 m 4
 220 146 245 60 314 60 c 4
 383 60 408 146 408 250 c 4
 408 374 383 460 314 460 c 4
 245 460 220 374 220 270 c 4
35 245 m 4
 35 405 123 540 314 540 c 4
 505 540 593 410 593 270 c 4
 593 110 505 -20 314 -20 c 4
 123 -20 35 105 35 245 c 4
EndSplineSet
EndChar

StartChar: p
Encoding: 112 112 53
Width: 688
VWidth: 1155
Flags: HMW
LayerCount: 2
Fore
SplineSet
265 -165 m 5
 355 -165 l 5
 355 -250 l 5
 265 -250 l 5
 265 -165 l 5
5 -165 m 1
 95 -165 l 1
 95 -250 l 1
 5 -250 l 1
 5 -165 l 1
265 260 m 0
 265 166 302 82 373 82 c 0
 437 82 473 166 473 260 c 0
 473 354 437 438 373 438 c 0
 302 438 265 354 265 260 c 0
236 260 m 0
 236 412 290 539 431 539 c 4
 560 539 653 440 653 260 c 0
 653 80 550 -20 421 -20 c 0
 280 -20 236 108 236 260 c 0
5 520 m 1
 95 520 l 1
 95 435 l 1
 5 435 l 1
 5 520 l 1
95 520 m 1
 265 520 l 1
 265 -250 l 1
 95 -250 l 1
 95 520 l 1
EndSplineSet
EndChar

StartChar: q
Encoding: 113 113 54
Width: 688
VWidth: 1155
Flags: HMW
LayerCount: 2
Fore
SplineSet
423 -165 m 1
 423 -250 l 1
 333 -250 l 1
 333 -165 l 1
 423 -165 l 1
423 260 m 0
 423 354 386 438 315 438 c 0
 251 438 215 354 215 260 c 0
 215 166 251 82 315 82 c 0
 386 82 423 166 423 260 c 0
452 260 m 0
 452 108 408 -20 267 -20 c 0
 138 -20 35 80 35 260 c 0
 35 440 148 539 277 539 c 4
 408 539 452 412 452 260 c 0
683 -165 m 1
 683 -250 l 1
 593 -250 l 1
 593 -165 l 1
 683 -165 l 1
683 520 m 1
 683 435 l 1
 593 435 l 1
 593 520 l 1
 683 520 l 1
593 520 m 1
 593 -250 l 1
 423 -250 l 1
 423 520 l 1
 593 520 l 1
EndSplineSet
EndChar

StartChar: r
Encoding: 114 114 55
Width: 563
VWidth: 1155
Flags: HMW
LayerCount: 2
Fore
SplineSet
390 446 m 1
 390 451 386 456 375 456 c 0
 347 456 275 366 275 263 c 1
 241 263 l 1
 241 355 269 540 420 540 c 4
 514 540 563 484 563 406 c 1
 390 446 l 1
15 85 m 1
 105 85 l 1
 105 0 l 1
 15 0 l 1
 15 85 l 1
15 520 m 1
 105 520 l 1
 105 435 l 1
 15 435 l 1
 15 520 l 1
105 520 m 1
 275 520 l 1
 275 0 l 1
 105 0 l 1
 105 520 l 1
275 85 m 1
 365 85 l 1
 365 0 l 1
 275 0 l 1
 275 85 l 1
370 381 m 0
 370 428 390 434 390 446 c 1
 563 406 l 1
 563 354 526 310 461 310 c 0
 407 310 370 340 370 381 c 0
EndSplineSet
EndChar

StartChar: s
Encoding: 115 115 56
Width: 530
VWidth: 1155
Flags: HMW
LayerCount: 2
Fore
SplineSet
37 385 m 1
 195 416 l 1
 195 306 510 355 510 147 c 1
 347 118 l 1
 347 235 37 179 37 385 c 1
155 67 m 21
 100 -10 l 9
 100 112 l 1
 155 67 l 21
105 203 m 1
 100 -10 l 1
 20 -10 l 1
 20 203 l 1
 105 203 l 1
80 107 m 1
 105 203 l 1
 125 120 191 65 253 65 c 0
 313 65 347 77 347 118 c 1
 510 147 l 1
 510 23 410 -22 293 -22 c 0
 164 -22 80 79 80 107 c 1
367 453 m 17
 412 530 l 1
 412 408 l 1
 367 453 l 17
407 330 m 1
 412 530 l 1
 492 530 l 1
 492 330 l 1
 407 330 l 1
410 423 m 1
 407 330 l 1
 397 413 325 456 273 456 c 0
 230 456 195 443 195 416 c 1
 37 385 l 1
 37 489 137 542 232 542 c 0
 370 542 410 449 410 423 c 1
EndSplineSet
EndChar

StartChar: t
Encoding: 116 116 57
Width: 448
VWidth: 1155
Flags: HMW
LayerCount: 2
Fore
SplineSet
423 106 m 1
 400 46 356 -17 243 -17 c 0
 166 -17 93 17 93 106 c 1
 263 124 l 1
 263 104 275 85 299 85 c 0
 319 85 348 114 360 141 c 1
 423 106 l 1
0 520 m 17
 86 520 158 523 188 700 c 13
 188 520 l 1
 0 520 l 17
188 520 m 1
 188 700 l 1
 263 700 l 1
 263 520 l 1
 188 520 l 1
0 520 m 1
 390 520 l 1
 390 435 l 1
 0 435 l 1
 0 520 l 1
263 498 m 1
 263 124 l 1
 93 106 l 1
 93 498 l 1
 263 498 l 1
EndSplineSet
EndChar

StartChar: u
Encoding: 117 117 58
Width: 735
VWidth: 1155
Flags: HMW
LayerCount: 2
Back
SplineSet
110 455 m 5
 20 455 l 5
 20 520 l 5
 110 520 l 5
 110 455 l 5
240 162 m 5
 110 151 l 5
 110 520 l 5
 240 520 l 5
 240 162 l 5
455 455 m 5
 365 455 l 5
 365 520 l 5
 455 520 l 5
 455 455 l 5
585 0 m 5
 455 0 l 5
 455 520 l 5
 585 520 l 5
 585 0 l 5
675 0 m 5
 585 0 l 5
 585 65 l 5
 675 65 l 5
 675 0 l 5
240 162 m 5
 240 88 254 57 305 57 c 4
 393 57 455 134 455 237 c 5
 484 237 l 5
 484 135 435 -15 282 -15 c 4
 165 -15 110 44 110 151 c 5
 240 162 l 5
EndSplineSet
Fore
SplineSet
625 0 m 1
 465 0 l 5
 465 110 l 5
 625 110 l 1
 625 0 l 1
110 435 m 1
 20 435 l 1
 20 520 l 1
 110 520 l 1
 110 435 l 1
280 167 m 1
 110 151 l 1
 110 520 l 1
 280 520 l 1
 280 167 l 1
455 435 m 1
 385 435 l 1
 385 520 l 1
 455 520 l 1
 455 435 l 1
625 0 m 1
 455 110 l 1
 455 520 l 1
 625 520 l 1
 625 0 l 1
715 0 m 1
 625 0 l 1
 625 85 l 1
 715 85 l 1
 715 0 l 1
280 167 m 1
 280 103 294 77 345 77 c 0
 413 77 455 134 455 237 c 1
 494 237 l 1
 494 135 455 -20 272 -20 c 0
 155 -20 110 44 110 151 c 1
 280 167 l 1
EndSplineSet
EndChar

StartChar: v
Encoding: 118 118 59
Width: 629
VWidth: 1155
Flags: HMW
LayerCount: 2
Fore
SplineSet
336 435 m 1
 -5 435 l 1
 -5 520 l 1
 336 520 l 1
 336 435 l 1
634 435 m 1
 390 435 l 1
 390 520 l 1
 634 520 l 1
 634 435 l 1
393 120 m 1
 278 -15 l 1
 40 520 l 1
 240 520 l 1
 393 120 l 1
365 -15 m 5
 278 -15 l 1
 488 520 l 1
 585 520 l 1
 365 -15 l 5
EndSplineSet
EndChar

StartChar: w
Encoding: 119 119 60
Width: 925
VWidth: 1155
Flags: HMW
LayerCount: 2
Fore
SplineSet
599 -10 m 1
 599 35 l 1
 686 35 l 1
 686 -10 l 1
 599 -10 l 1
233 -10 m 1
 233 35 l 1
 320 35 l 1
 320 -10 l 1
 233 -10 l 1
930 435 m 1
 666 435 l 1
 666 520 l 1
 930 520 l 1
 930 435 l 1
736 85 m 5
 599 -10 l 1
 419 433 l 1
 555 520 l 1
 736 85 l 5
708 -10 m 1
 609 -10 l 1
 779 520 l 1
 881 520 l 1
 708 -10 l 1
346 435 m 1
 -5 435 l 1
 -5 520 l 1
 346 520 l 1
 346 435 l 1
370 65 m 1
 233 -10 l 1
 60 520 l 1
 234 520 l 1
 370 65 l 1
342 -10 m 1
 243 -10 l 1
 453 520 l 1
 555 520 l 1
 342 -10 l 1
EndSplineSet
EndChar

StartChar: x
Encoding: 120 120 61
Width: 664
VWidth: 1155
Flags: HMW
LayerCount: 2
Fore
SplineSet
333 85 m 1
 669 85 l 1
 669 0 l 1
 333 0 l 1
 333 85 l 1
-5 85 m 1
 264 85 l 1
 264 0 l 1
 -5 0 l 1
 -5 85 l 1
369 435 m 5
 18 435 l 5
 18 520 l 5
 369 520 l 5
 369 435 l 5
652 435 m 5
 408 435 l 5
 408 520 l 5
 652 520 l 5
 652 435 l 5
664 0 m 1
 459 0 l 1
 43 500 l 5
 248 500 l 5
 664 0 l 1
110 20 m 1
 15 40 l 1
 527 490 l 5
 622 470 l 5
 110 20 l 1
EndSplineSet
EndChar

StartChar: y
Encoding: 121 121 62
Width: 665
VWidth: 1155
Flags: HMW
LayerCount: 2
Back
SplineSet
196 -97 m 4
 196 -165 138 -160 138 -176 c 5
 35 -128 l 5
 35 -72 60 -23 121 -23 c 4
 171 -23 196 -56 196 -97 c 4
433 58 m 5
 352 -67 l 5
 86 520 l 5
 226 520 l 5
 433 58 l 5
670 435 m 5
 455 435 l 5
 455 520 l 5
 670 520 l 5
 670 435 l 5
323 435 m 5
 32 435 l 5
 32 520 l 5
 323 520 l 5
 323 435 l 5
183 -205 m 5
 222 -205 277.92578125 -180.27734375 325 -60 c 6
 552 520 l 5
 626 520 l 5
 379 -102 l 6
 327.118164062 -232.649414062 241 -265 183 -265 c 5
 183 -205 l 5
35 -128 m 5
 138 -176 l 5
 138 -189 150 -205 183 -205 c 5
 183 -265 l 5
 86 -265 35 -195 35 -128 c 5
EndSplineSet
Fore
SplineSet
196 -67 m 0
 196 -145 118 -140 118 -156 c 1
 -5 -108 l 1
 -5 -42 30 17 101 17 c 4
 171 17 196 -26 196 -67 c 0
433 58 m 1
 332 -87 l 1
 46 520 l 1
 226 520 l 1
 433 58 l 1
670 435 m 1
 425 435 l 1
 425 520 l 1
 670 520 l 1
 670 435 l 1
343 435 m 1
 12 435 l 1
 12 520 l 1
 343 520 l 1
 343 435 l 1
163 -185 m 1
 202 -185 257.92578125 -180.27734375 305 -60 c 2
 532 520 l 1
 626 520 l 1
 379 -102 l 2
 327.118164062 -232.649414062 221 -265 163 -265 c 1
 163 -185 l 1
-5 -108 m 1
 118 -156 l 1
 118 -169 130 -185 163 -185 c 1
 163 -265 l 1
 46 -265 -5 -175 -5 -108 c 1
EndSplineSet
EndChar

StartChar: z
Encoding: 122 122 63
Width: 570
VWidth: 1155
Flags: HMW
LayerCount: 2
Fore
SplineSet
345 440 m 1
 534 440 l 1
 228 80 l 1
 30 80 l 1
 345 440 l 1
294 80 m 17
 441 80 455 140 455 254 c 9
 455 80 l 1
 294 80 l 17
455 80 m 1
 455 254 l 1
 535 254 l 1
 535 80 l 1
 455 80 l 1
133 288 m 5
 53 288 l 5
 53 440 l 5
 133 440 l 5
 133 288 l 5
30 80 m 1
 535 80 l 1
 535 0 l 1
 30 0 l 1
 30 80 l 1
534 520 m 1
 534 440 l 1
 53 440 l 5
 53 520 l 5
 534 520 l 1
133 288 m 13
 133 440 l 5
 271 440 l 21
 147 440 133 379 133 288 c 13
EndSplineSet
EndChar

StartChar: comma
Encoding: 44 44 65
Width: 305
Flags: HMW
LayerCount: 2
Fore
SplineSet
262 49 m 5
 262 -91 148 -156 38 -156 c 1
 38 -86 l 1
 93 -86 193 -64 187 26 c 1
 203.365234375 31.9150390625 233.764648438 103.112304688 262 49 c 5
40 84 m 0
 40 137 79 183 147 183 c 0
 211 183 262 142 262 49 c 4
 262 34.2919921875 206.415884123 31.5828316857 196 25 c 0
 184.506835938 17.736328125 186.291992188 -15 118 -15 c 0
 65 -15 40 31 40 84 c 0
EndSplineSet
EndChar

StartChar: exclam
Encoding: 33 33 67
Width: 359
Flags: HMW
LayerCount: 2
Fore
SplineSet
288 634 m 0
 277 458 213 418 213 268 c 5
 145 268 l 1
 145 418 81 458 70 634 c 0
 70 641 70 647 70 653 c 4
 70 729 122 768 179 768 c 0
 236 768 289 729 289 653 c 4
 289 647 288 641 288 634 c 0
EndSplineSet
Refer: 1 46 N 1 0 0 1 40 0 2
EndChar

StartChar: quotesingle
Encoding: 39 39 70
Width: 259
Flags: HMW
LayerCount: 2
Fore
SplineSet
218 664 m 0
 207 599 157 578 157 488 c 5
 99 488 l 5
 99 578 51 599 40 664 c 0
 38.8201606249 670.971778125 39 676 39 682 c 0
 39 726 75 768 129 768 c 0
 183 768 219 726 219 682 c 0
 219 676 219.179839375 670.971778125 218 664 c 0
EndSplineSet
EndChar

StartChar: question
Encoding: 63 63 75
Width: 590
Flags: HMW
LayerCount: 2
Fore
SplineSet
207 389.01171875 m 1
 367 389.01171875 l 1
 367 249.01171875 l 1
 207 249.01171875 l 1
 207 389.01171875 l 1
45 571 m 1
 45 663 129 770 301 770 c 0
 492 770 570 690 570 570 c 5
 389 570 l 1
 389 644 370 698 281 698 c 0
 227 698 194 674 194 662 c 1
 45 571 l 1
194 662 m 1
 194 642 244 621 244 550 c 0
 244 498 202 460 147 460 c 0
 92 460 45 503 45 571 c 1
 194 662 l 1
207 389.01171875 m 1
 314.477539062 420.314453125 389 466.76171875 389 570 c 1
 570 570 l 5
 570 410 408 350 247 350 c 1
 207 389.01171875 l 1
EndSplineSet
Refer: 1 46 N 1 0 0 1 149 0 2
EndChar

StartChar: parenleft
Encoding: 40 40 76
Width: 485
Flags: HMW
LayerCount: 2
Fore
SplineSet
475 -100 m 5
 445 -170 l 1
 222 -120 55 62 55 325 c 0
 55 588 222 750 445 800 c 1
 475 730 l 5
 331 680 250 557 250 325 c 0
 250 93 331 -50 475 -100 c 5
EndSplineSet
EndChar

StartChar: asterisk
Encoding: 42 42 78
Width: 635
VWidth: 1155
Flags: HMW
LayerCount: 2
Fore
SplineSet
515.750976562 537.75390625 m 0
 469.224609375 522.014648438 425.110351562 553.784179688 354.633789062 520 c 1
 425.110351562 486.215820312 469.224609375 517.985351562 515.75 502.24609375 c 0
 522.448242188 499.98046875 526.642578125 497.112304688 531.838867188 494.112304688 c 0
 569.944335938 472.112304688 583.986328125 422.435546875 559.486328125 380 c 0
 534.986328125 337.564453125 484.944335938 324.887695312 446.838867188 346.887695312 c 0
 441.642578125 349.887695312 437.061523438 352.0859375 431.75 356.75390625 c 0
 394.856445312 389.176757812 400.348632812 441.203125 336.317382812 485.077148438 c 1
 341.76171875 407.418945312 391.3671875 387.162109375 401 339 c 0
 402.38671875 332.06640625 402 327 402 321 c 0
 402 277 366 240 317 240 c 0
 268 240 232 277 232 321 c 0
 232 327 231.61328125 332.06640625 233 339 c 0
 242.6328125 387.162109375 292.23828125 407.418945312 297.682617188 485.077148438 c 5
 228.651367188 441.203125 239.142578125 389.176757812 202.249023438 356.75390625 c 0
 196.9375 352.0859375 192.357421875 349.887695312 187.161132812 346.887695312 c 0
 149.055664062 324.887695312 99.0126953125 337.564453125 74.5126953125 380 c 0
 50.0126953125 422.435546875 64.0556640625 472.112304688 102.161132812 494.112304688 c 0
 107.357421875 497.112304688 111.55078125 499.98046875 118.249023438 502.24609375 c 0
 164.775390625 517.985351562 208.889648438 486.215820312 279.366210938 520 c 1
 208.889648438 553.784179688 164.775390625 522.014648438 118.249023438 537.75390625 c 0
 111.55078125 540.01953125 107.357421875 542.887695312 102.161132812 545.887695312 c 0
 64.0556640625 567.887695312 50.0126953125 617.564453125 74.5126953125 660 c 0
 99.0126953125 702.435546875 149.055664062 715.112304688 187.161132812 693.112304688 c 0
 192.357421875 690.112304688 196.9375 687.9140625 202.249023438 683.24609375 c 0
 239.142578125 650.823242188 233.651367188 598.796875 297.682617188 554.922851562 c 1
 292.23828125 632.581054688 242.6328125 652.837890625 233 701 c 0
 231.61328125 707.93359375 232 713 232 719 c 0
 232 763 268 800 317 800 c 0
 366 800 402 763 402 719 c 0
 402 713 402.38671875 707.93359375 401 701 c 0
 391.3671875 652.837890625 341.76171875 632.581054688 336.317382812 554.922851562 c 1
 400.348632812 598.796875 394.857421875 650.823242188 431.750976562 683.24609375 c 0
 437.0625 687.9140625 441.642578125 690.112304688 446.838867188 693.112304688 c 0
 484.944335938 715.112304688 534.987304688 702.435546875 559.487304688 660 c 0
 583.987304688 617.564453125 569.944335938 567.887695312 531.838867188 545.887695312 c 0
 526.642578125 542.887695312 522.44921875 540.01953125 515.750976562 537.75390625 c 0
EndSplineSet
EndChar

StartChar: at
Encoding: 64 64 79
Width: 1100
VWidth: 1155
Flags: HMW
LayerCount: 2
Fore
SplineSet
865 -74 m 1
 781 -172 652 -224 489 -224 c 0
 306 -224 45 -112 45 221 c 1
 230 231 l 1
 230 -71 411 -129 525 -129 c 0
 619 -129 716 -113 806 -15 c 1
 865 -74 l 1
862 520 m 1
 790 210 l 1
 620 210 l 1
 692 520 l 1
 862 520 l 1
673 359 m 0
 673 192.828125 604 65 484 65 c 0
 375 65 324 125.583984375 324 210 c 0
 324 380 409 534 568 534 c 0
 679 534 673 461 673 359 c 0
644 346 m 0
 644 387.927734375 640 458 594 458 c 0
 550 458 495 324 495 220 c 0
 495 173.072265625 500 142 534 142 c 0
 595 142 644 268 644 346 c 0
620 210 m 1
 790 210 l 1
 788 197 775 160 808 160 c 0
 859 160 957 241 957 405 c 1
 1050 401 l 1
 1050 231 942 65 761 65 c 0
 662 65 607 148 620 210 c 1
957 405 m 1
 957 612 806 712 622 712 c 0
 408 712 230 503 230 231 c 1
 45 221 l 5
 45 554 292 800 605 800 c 0
 898 800 1050 624 1050 401 c 1
 957 405 l 1
EndSplineSet
EndChar

StartChar: dollar
Encoding: 36 36 80
Width: 660
Flags: HMW
LayerCount: 2
Fore
SplineSet
40 544 m 1
 216 583 l 1
 216 433 650 515 650 205 c 1
 470 190 l 1
 470 370 40 254 40 544 c 1
310 835 m 1
 405 835 l 1
 345 -85 l 1
 250 -85 l 1
 310 835 l 1
150 120 m 1
 6 186 l 1
 6 264 61 292 100 292 c 0
 157 292 197 261 197 204 c 0
 197 158 150 143 150 120 c 1
480 640 m 1
 624 579 l 1
 624 511 579 483 530 483 c 0
 483 483 443 514 443 571 c 0
 443 617 480 617 480 640 c 1
6 186 m 1
 150 120 l 1
 150 91 186 56 330 56 c 0
 466 56 470 151 470 190 c 5
 650 205 l 1
 650 65 511 -15 330 -15 c 0
 134 -15 6 56 6 186 c 1
624 579 m 1
 480 640 l 1
 480 669 444 684 350 684 c 0
 264 684 216 652 216 583 c 1
 40 544 l 1
 40 684 199 765 320 765 c 0
 466 765 624 719 624 579 c 1
EndSplineSet
EndChar

StartChar: numbersign
Encoding: 35 35 81
Width: 660
Flags: HMW
LayerCount: 2
Fore
SplineSet
-10 300 m 1
 640 300 l 1
 640 215 l 5
 -10 215 l 5
 -10 300 l 1
20 550 m 1
 670 550 l 1
 670 465 l 1
 20 465 l 1
 20 550 l 1
440 805 m 1
 525 805 l 1
 425 -55 l 1
 340 -55 l 1
 440 805 l 1
220 805 m 1
 305 805 l 1
 205 -55 l 1
 120 -55 l 1
 220 805 l 1
EndSplineSet
EndChar

StartChar: slash
Encoding: 47 47 82
Width: 520
Flags: HMW
LayerCount: 2
Fore
SplineSet
376 780 m 1
 480 780 l 1
 149 -150 l 5
 40 -150 l 1
 376 780 l 1
EndSplineSet
EndChar

StartChar: percent
Encoding: 37 37 83
Width: 1000
Flags: HMW
LayerCount: 2
Fore
SplineSet
720 210 m 4
 720 108 731 50 765 50 c 4
 799 50 810 108 810 210 c 4
 810 312 799 370 765 370 c 4
 731 370 720 312 720 210 c 4
550 210 m 4
 550 353 622 440 765 440 c 4
 908 440 980 353 980 210 c 4
 980 67 888 -20 765 -20 c 4
 622 -20 550 67 550 210 c 4
711 750 m 5
 815 750 l 5
 294 0 l 5
 185 0 l 5
 711 750 l 5
190 540 m 4
 190 438 201 380 235 380 c 4
 269 380 280 438 280 540 c 4
 280 642 269 700 235 700 c 4
 201 700 190 642 190 540 c 4
20 540 m 4
 20 683 92 770 235 770 c 4
 378 770 450 683 450 540 c 4
 450 397 358 310 235 310 c 4
 92 310 20 397 20 540 c 4
EndSplineSet
EndChar

StartChar: hyphen
Encoding: 45 45 85
Width: 460
Flags: HMW
LayerCount: 2
Fore
SplineSet
60 435 m 5
 400 435 l 5
 400 340 l 1
 60 340 l 1
 60 435 l 5
EndSplineSet
EndChar

StartChar: plus
Encoding: 43 43 87
Width: 530
Flags: HMW
LayerCount: 2
Fore
SplineSet
223 110 m 1
 223 520 l 1
 307 520 l 5
 307 110 l 5
 223 110 l 1
60 358 m 1
 470 358 l 1
 470 273 l 1
 60 273 l 1
 60 358 l 1
EndSplineSet
EndChar

StartChar: less
Encoding: 60 60 89
Width: 560
Flags: HMW
LayerCount: 2
Fore
SplineSet
60 355 m 1
 60 460 l 1
 500 630 l 1
 500 525 l 1
 60 355 l 1
60 315 m 5
 60 420 l 1
 500 250 l 1
 500 145 l 1
 60 315 l 5
EndSplineSet
EndChar

StartChar: backslash
Encoding: 92 92 91
Width: 520
Flags: HMW
LayerCount: 2
Fore
SplineSet
144 780 m 1
 480 -150 l 1
 371 -150 l 5
 40 780 l 1
 144 780 l 1
EndSplineSet
EndChar

StartChar: bracketleft
Encoding: 91 91 92
Width: 365
Flags: HMW
LayerCount: 2
Fore
SplineSet
335 -150 m 1
 55 -150 l 1
 55 -55 l 5
 335 -55 l 5
 335 -150 l 1
335 685 m 1
 55 685 l 1
 55 780 l 1
 335 780 l 1
 335 685 l 1
225 780 m 1
 225 -150 l 1
 55 -150 l 1
 55 780 l 1
 225 780 l 1
EndSplineSet
EndChar

StartChar: braceleft
Encoding: 123 123 93
Width: 332
VWidth: 1155
Flags: HMW
LayerCount: 2
Fore
SplineSet
302 780 m 1
 302 693 l 1
 240 693 208 670 208 617 c 0
 208 551 242 521 242 431 c 0
 242 348 129 310 55 270 c 5
 55 360 l 1
 85 370 115 375 115 416 c 0
 115 479 35 544 35 641 c 0
 35 730 107 780 302 780 c 1
302 -150 m 1
 107 -150 35 -99 35 -10 c 0
 35 87 115 152 115 215 c 0
 115 256 85 260 55 270 c 1
 55 360 l 1
 129 320 242 283 242 200 c 0
 242 110 208 80 208 14 c 0
 208 -39 240 -63 302 -63 c 1
 302 -150 l 1
EndSplineSet
EndChar

StartChar: bar
Encoding: 124 124 96
Width: 300
VWidth: 1155
Flags: HMW
LayerCount: 2
Fore
SplineSet
95 780 m 5
 205 780 l 1
 205 -250 l 1
 95 -250 l 5
 95 780 l 5
EndSplineSet
EndChar

StartChar: cent
Encoding: 162 162 98
Width: 605
VWidth: 1155
Flags: HMW
LayerCount: 2
Fore
SplineSet
295.946289062 615 m 5
 370.946289062 615 l 5
 340.946289062 -85 l 1
 265.946289062 -85 l 1
 295.946289062 615 l 5
EndSplineSet
Refer: 40 99 N 1 0 0 1 0 0 2
EndChar

StartChar: sterling
Encoding: 163 163 99
Width: 650
VWidth: 1155
Flags: HMW
LayerCount: 2
Fore
SplineSet
600 197 m 1
 600 52 539 -40 430 -40 c 0
 313 -40 268 35 195 35 c 0
 134 35 104 10 94 -20 c 1
 20 -20 l 1
 40 54 187 167 280 167 c 0
 360 167 380 113 446 113 c 0
 489 113 533 145 533 197 c 1
 600 197 l 1
453 395 m 1
 453 300 l 1
 -37 300 l 1
 -37 395 l 1
 453 395 l 1
455 647 m 5
 608 581 l 5
 608 513 563 475 514 475 c 4
 467 475 418 506 418 563 c 4
 418 609 455 624 455 647 c 5
608 581 m 5
 455 647 l 5
 455 674 436 693 362 693 c 0
 283 693 237 634 237 560 c 1
 46 550 l 1
 46 690 161 775 362 775 c 0
 544 775 608 673 608 581 c 5
46 550 m 1
 237 560 l 1
 237 461 313 395 313 320 c 0
 313 140 81 165 64 -20 c 1
 20 -20 l 1
 1 119 147 197 147 261 c 0
 147 375 46 435 46 550 c 1
EndSplineSet
EndChar

StartChar: section
Encoding: 167 167 101
Width: 574
VWidth: 1155
Flags: HMW
LayerCount: 2
Fore
SplineSet
528 142 m 1
 370 116 l 1
 370 232 27 212 27 375 c 0
 27 447 91 474 145 510 c 1
 229 500 l 1
 205 478 183 447 183 417 c 0
 183 286 528 324 528 142 c 1
138 92 m 1
 9 138 l 1
 9 206 64 239 103 239 c 0
 150 239 190 203 190 156 c 0
 190 120 138 115 138 92 c 1
9 138 m 1
 138 92 l 1
 138 66 210 56 262 56 c 0
 325 56 370 69 370 116 c 1
 528 142 l 1
 528 18 368 -20 273 -20 c 0
 165 -20 9 12 9 138 c 1
27 608 m 1
 185 634 l 1
 185 518 528 538 528 375 c 0
 528 323 484 276 430 240 c 1
 316 250 l 1
 340 272 362 303 362 333 c 4
 362 464 27 426 27 608 c 1
367 658 m 1
 516 612 l 1
 516 544 471 516 432 516 c 0
 395 516 335 547 335 594 c 0
 335 630 367 635 367 658 c 1
516 612 m 1
 367 658 l 1
 367 684 325 694 273 694 c 0
 220 694 185 671 185 634 c 1
 27 608 l 1
 27 712 167 770 262 770 c 0
 390 770 516 728 516 612 c 1
EndSplineSet
EndChar

StartChar: asciitilde
Encoding: 126 126 104
Width: 688
VWidth: 1155
Flags: HMW
LayerCount: 2
Fore
SplineSet
243 427 m 0
 190 427 177 395 177 343 c 1
 80 343 l 1
 80 458 140 530 249 530 c 4
 379 530 359 426 435 426 c 0
 488 426 511 458 511 510 c 1
 608 510 l 1
 608 395 548 323 439 323 c 4
 292 323 326 427 243 427 c 0
EndSplineSet
EndChar

StartChar: copyright
Encoding: 169 169 105
Width: 870
Flags: HMW
LayerCount: 2
Fore
SplineSet
40 375 m 0
 40 588 218 760 435 760 c 0
 652 760 830 588 830 375 c 0
 830 162 652 -10 435 -10 c 0
 218 -10 40 162 40 375 c 0
100 375 m 0
 100 190 250 39 435 39 c 0
 620 39 770 190 770 375 c 0
 770 560 620 711 435 711 c 0
 250 711 100 560 100 375 c 0
EndSplineSet
Refer: 14 67 S 0.6 0 0 0.6 162 150 2
EndChar

StartChar: registered
Encoding: 174 174 106
Width: 870
Flags: HMW
LayerCount: 2
Fore
SplineSet
40 375 m 0
 40 588 218 760 435 760 c 0
 652 760 830 588 830 375 c 0
 830 162 652 -10 435 -10 c 0
 218 -10 40 162 40 375 c 0
100 375 m 0
 100 190 250 39 435 39 c 0
 620 39 770 190 770 375 c 0
 770 560 620 711 435 711 c 0
 250 711 100 560 100 375 c 0
EndSplineSet
Refer: 29 82 S 0.6 0 0 0.6 178 148 2
EndChar

StartChar: guillemotleft
Encoding: 171 171 108
Width: 695
Flags: HMW
LayerCount: 2
Fore
SplineSet
460.900390625 387.5 m 1
 675 190 l 1
 635 135 l 5
 295 375 l 1
 295 400 l 1
 635 640 l 1
 675 585 l 1
 460.900390625 387.5 l 1
180.900390625 387.5 m 1
 395 190 l 1
 355 135 l 1
 15 375 l 1
 15 400 l 1
 355 640 l 1
 395 585 l 1
 180.900390625 387.5 l 1
EndSplineSet
EndChar

StartChar: mu
Encoding: 181 181 111
Width: 735
VWidth: 1155
Flags: HMW
LayerCount: 2
Fore
SplineSet
281 -113 m 0
 334 -113 347 -147 347 -181 c 0
 347 -216 314 -260 256 -260 c 1
 207 -152 l 1
 227 -152 246 -113 281 -113 c 0
110 -122 m 1
 110 321 l 1
 170 321 l 1
 170 -119 l 1
 110 -122 l 1
110 -122 m 1
 170 -119 l 1
 170 -156 194 -152 207 -152 c 1
 256 -260 l 1
 194 -260 110 -211 110 -122 c 1
EndSplineSet
Refer: 58 117 N 1 0 0 1 0 0 2
EndChar

StartChar: asciicircum
Encoding: 94 94 113
Width: 545
Flags: HMW
LayerCount: 2
Fore
SplineSet
325 770 m 5
 305 703 l 1
 240 703 l 1
 220 770 l 1
 325 770 l 5
220 710 m 1
 325 770 l 5
 505 580 l 1
 440 550 l 1
 220 710 l 1
220 770 m 1
 325 710 l 1
 105 550 l 1
 40 580 l 1
 220 770 l 1
EndSplineSet
EndChar

StartChar: degree
Encoding: 176 176 115
Width: 320
Flags: HMW
LayerCount: 2
Fore
SplineSet
105 680 m 0
 105 650 130 625 160 625 c 0
 190 625 215 650 215 680 c 0
 215 710 190 735 160 735 c 0
 130 735 105 710 105 680 c 0
40 680 m 0
 40 746 94 800 160 800 c 0
 226 800 280 746 280 680 c 0
 280 614 226 560 160 560 c 0
 94 560 40 614 40 680 c 0
EndSplineSet
EndChar

StartChar: onequarter
Encoding: 188 188 119
Width: 1000
Flags: HMW
LayerCount: 2
Fore
SplineSet
681 750 m 1
 765 750 l 1
 324 0 l 1
 235 0 l 5
 681 750 l 1
EndSplineSet
Refer: 6 52 N 0.6 0 0 0.6 535 32 2
Refer: 3 49 N 0.6 0 0 0.6 107 456 2
EndChar

StartChar: onehalf
Encoding: 189 189 120
Width: 1000
Flags: HMW
LayerCount: 2
Fore
SplineSet
681 750 m 1
 765 750 l 1
 324 0 l 5
 235 0 l 1
 681 750 l 1
EndSplineSet
Refer: 4 50 N 0.6 0 0 0.6 576 17 2
Refer: 3 49 N 0.6 0 0 0.6 107 456 2
EndChar

StartChar: threequarters
Encoding: 190 190 121
Width: 1000
Flags: HMW
LayerCount: 2
Fore
SplineSet
681 750 m 1
 765 750 l 1
 324 0 l 5
 235 0 l 1
 681 750 l 1
EndSplineSet
Refer: 6 52 N 0.6 0 0 0.6 535 32 2
Refer: 5 51 N 0.6 0 0 0.6 65 457 2
EndChar

StartChar: grave
Encoding: 96 96 123
Width: 395
Flags: HMW
LayerCount: 2
Fore
SplineSet
210 690 m 6
 171.0546875 689.134765625 135 716 135 755 c 4
 135 794 176.610620884 835.397673752 220 818 c 6
 427 735 l 5
 425 695 l 5
 210 690 l 6
EndSplineSet
EndChar

StartChar: acute
Encoding: 180 180 124
Width: 395
Flags: HMW
LayerCount: 2
Fore
SplineSet
165 700 m 2
 -50 705 l 1
 -52 745 l 1
 155 828 l 2
 198.389648438 845.397460938 240 804 240 765 c 0
 240 726 203.9453125 699.134765625 165 700 c 2
EndSplineSet
EndChar

StartChar: cedilla
Encoding: 184 184 128
Width: 550
Flags: HMW
LayerCount: 2
Fore
SplineSet
157 -99.01171875 m 1
 267 40.98828125 l 1
 377 40.98828125 l 1
 267 -99.01171875 l 1
 157 -99.01171875 l 1
157 -99.01171875 m 1
 217 -50 l 1
 328 -50 410 -90 410 -140 c 1
 309 -150 l 1
 309 -116.76171875 282 -99.01171875 157 -99.01171875 c 1
181 -178 m 5
 270 -188 309 -174 309 -150 c 1
 410 -140 l 1
 410 -190 352 -250 181 -240 c 1
 181 -178 l 5
EndSplineSet
EndChar

StartChar: AE
Encoding: 198 198 526
Width: 1197
Flags: HMW
LayerCount: 2
Fore
SplineSet
290 295 m 1
 640 295 l 1
 640 190 l 1
 290 190 l 1
 290 295 l 1
0 95 m 1
 300 95 l 1
 300 0 l 1
 0 0 l 1
 0 95 l 1
646 750 m 5
 775 750 l 5
 169 0 l 1
 35 0 l 1
 646 750 l 5
EndSplineSet
Refer: 16 69 N 1 0 0 1 460 0 2
EndChar

StartChar: ae
Encoding: 230 230 529
Width: 909
VWidth: 1155
Flags: HMW
LayerCount: 2
Fore
SplineSet
314 294 m 1
 334 229 l 1
 228 229 202 178 202 141 c 0
 202 104 225 79 260 79 c 0
 308 79 346 123 346 194 c 1
 425 174 l 1
 425 50 321 -15 200 -15 c 0
 81 -15 15 34 15 128 c 0
 15 222 102 294 314 294 c 1
456 352 m 1
 516 126 l 1
 346 78 l 1
 346 372 l 1
 456 352 l 1
45 383 m 1
 45 470 157 535 288 535 c 4
 388 535 456 493 456 352 c 1
 346 362 l 1
 346 429 313 464 263 464 c 0
 239 464 207 457 207 444 c 1
 45 383 l 1
314 294 m 1
 448 294 l 1
 448 229 l 1
 334 229 l 1
 314 294 l 1
229 374 m 0
 229 330 188 300 134 300 c 0
 78 300 45 329 45 383 c 1
 207 444 l 1
 207 431 229 422 229 374 c 0
375 250 m 1
 516 275 l 1
 516 151 536 69 625 69 c 0
 678 69 737 103 762 173 c 1
 858 173 l 1
 832 66 744 -20 613 -20 c 0
 432 -20 375 110 375 250 c 1
472 329 m 1
 786 329 l 1
 786 246 l 1
 472 246 l 1
 472 329 l 1
869 246 m 1
 699 246 l 1
 699 349 703 461 619 461 c 0
 540 461 516 374 516 270 c 1
 375 250 l 1
 375 410 439 540 620 540 c 0
 839 540 869 375 869 246 c 1
EndSplineSet
EndChar

StartChar: perthousand
Encoding: 8240 8240 537
Width: 1470
Flags: HMW
LayerCount: 2
Fore
SplineSet
1190 210 m 4
 1190 108 1201 50 1235 50 c 4
 1269 50 1280 108 1280 210 c 4
 1280 312 1269 370 1235 370 c 4
 1201 370 1190 312 1190 210 c 4
1020 210 m 4
 1020 353 1092 440 1235 440 c 4
 1378 440 1450 353 1450 210 c 4
 1450 67 1358 -20 1235 -20 c 4
 1092 -20 1020 67 1020 210 c 4
720 210 m 4
 720 108 731 50 765 50 c 4
 799 50 810 108 810 210 c 4
 810 312 799 370 765 370 c 4
 731 370 720 312 720 210 c 4
550 210 m 4
 550 353 622 440 765 440 c 4
 908 440 980 353 980 210 c 4
 980 67 888 -20 765 -20 c 4
 622 -20 550 67 550 210 c 4
711 750 m 5
 815 750 l 5
 294 0 l 5
 185 0 l 5
 711 750 l 5
190 540 m 4
 190 438 201 380 235 380 c 4
 269 380 280 438 280 540 c 4
 280 642 269 700 235 700 c 4
 201 700 190 642 190 540 c 4
20 540 m 4
 20 683 92 770 235 770 c 4
 378 770 450 683 450 540 c 4
 450 397 358 310 235 310 c 4
 92 310 20 397 20 540 c 4
EndSplineSet
EndChar

StartChar: uni2031
Encoding: 8241 8241 538
Width: 1940
Flags: HMW
LayerCount: 2
Fore
SplineSet
1660 210 m 4
 1660 108 1671 50 1705 50 c 4
 1739 50 1750 108 1750 210 c 4
 1750 312 1739 370 1705 370 c 4
 1671 370 1660 312 1660 210 c 4
1490 210 m 4
 1490 353 1562 440 1705 440 c 4
 1848 440 1920 353 1920 210 c 4
 1920 67 1828 -20 1705 -20 c 4
 1562 -20 1490 67 1490 210 c 4
1190 210 m 0
 1190 108 1201 50 1235 50 c 0
 1269 50 1280 108 1280 210 c 0
 1280 312 1269 370 1235 370 c 0
 1201 370 1190 312 1190 210 c 0
1020 210 m 0
 1020 353 1092 440 1235 440 c 0
 1378 440 1450 353 1450 210 c 0
 1450 67 1358 -20 1235 -20 c 0
 1092 -20 1020 67 1020 210 c 0
720 210 m 0
 720 108 731 50 765 50 c 0
 799 50 810 108 810 210 c 0
 810 312 799 370 765 370 c 0
 731 370 720 312 720 210 c 0
550 210 m 0
 550 353 622 440 765 440 c 0
 908 440 980 353 980 210 c 0
 980 67 888 -20 765 -20 c 0
 622 -20 550 67 550 210 c 0
711 750 m 1
 815 750 l 1
 294 0 l 1
 185 0 l 1
 711 750 l 1
190 540 m 0
 190 438 201 380 235 380 c 0
 269 380 280 438 280 540 c 0
 280 642 269 700 235 700 c 0
 201 700 190 642 190 540 c 0
20 540 m 0
 20 683 92 770 235 770 c 0
 378 770 450 683 450 540 c 0
 450 397 358 310 235 310 c 0
 92 310 20 397 20 540 c 0
EndSplineSet
EndChar

StartChar: uniFB00
Encoding: 64256 64256 542
Width: 825
VWidth: 1155
Flags: HMW
LayerCount: 2
Back
SplineSet
880 694 m 5
 751 738 l 5
 751 750 726 760 684 760 c 4
 624 760 585 697 585 570 c 5
 455 592 l 5
 455 723 542 815 682 815 c 4
 803 815 880 761 880 694 c 5
723 676 m 4
 723 716 751 723 751 738 c 5
 880 694 l 5
 880 641 843 608 798 608 c 4
 753 608 723 638 723 676 c 4
385 65 m 5
 455 65 l 5
 455 0 l 5
 385 0 l 5
 385 65 l 5
585 65 m 5
 705 65 l 5
 705 0 l 5
 585 0 l 5
 585 65 l 5
455 592 m 5
 585 570 l 5
 585 0 l 5
 455 0 l 5
 455 592 l 5
540 654 m 5
 411 698 l 5
 411 710 386 720 344 720 c 4
 284 720 245 657 245 530 c 5
 115 552 l 5
 115 683 192 775 342 775 c 4
 473 775 540 721 540 654 c 5
383 636 m 4
 383 676 411 683 411 698 c 5
 540 654 l 5
 540 601 503 568 458 568 c 4
 413 568 383 598 383 636 c 4
25 65 m 5
 115 65 l 5
 115 0 l 5
 25 0 l 5
 25 65 l 5
245 65 m 5
 345 65 l 5
 345 0 l 5
 245 0 l 5
 245 65 l 5
25 520 m 5
 715 520 l 5
 715 455 l 5
 25 455 l 5
 25 520 l 5
115 552 m 5
 245 530 l 5
 245 0 l 5
 115 0 l 5
 115 552 l 5
EndSplineSet
Fore
SplineSet
960 664 m 1
 793 709 l 1
 793 717 781 725 759 725 c 0
 679 725 660 677 660 550 c 1
 490 572 l 1
 490 703 587 800 737 800 c 0
 868 800 960 751 960 664 c 1
763 646 m 0
 763 693 793 698 793 709 c 1
 960 664 l 1
 960 594 915 553 863 553 c 0
 801 553 763 591 763 646 c 0
420 85 m 1
 490 85 l 1
 490 0 l 1
 420 0 l 1
 420 85 l 1
660 85 m 1
 780 85 l 1
 780 0 l 1
 660 0 l 1
 660 85 l 1
490 572 m 1
 660 550 l 1
 660 0 l 1
 490 0 l 1
 490 572 l 1
600 644 m 5
 433 689 l 5
 433 697 411 705 389 705 c 4
 309 705 280 637 280 550 c 5
 110 572 l 5
 110 703 217 780 367 780 c 4
 498 780 600 731 600 644 c 5
403 626 m 4
 403 673 433 678 433 689 c 5
 600 644 l 5
 600 574 555 553 503 553 c 4
 441 553 403 571 403 626 c 4
20 85 m 5
 110 85 l 5
 110 0 l 5
 20 0 l 5
 20 85 l 5
280 85 m 5
 380 85 l 5
 380 0 l 5
 280 0 l 5
 280 85 l 5
20 520 m 5
 800 520 l 5
 800 435 l 5
 20 435 l 5
 20 520 l 5
110 572 m 5
 280 550 l 5
 280 0 l 5
 110 0 l 5
 110 572 l 5
EndSplineSet
LCarets2: 1 0
Ligature2: "Not your mama's contextual ligatures" f f
EndChar

StartChar: uniFB01
Encoding: 64257 64257 543
Width: 760
VWidth: 1155
Flags: HMW
LayerCount: 2
Back
SplineSet
560 674 m 5
 429 716 l 5
 429 728 396 740 354 740 c 4
 274 740 245 677 245 550 c 5
 115 572 l 5
 115 703 192 795 352 795 c 4
 483 795 560 741 560 674 c 5
403 656 m 4
 403 696 429 701 429 716 c 5
 560 674 l 5
 560 621 523 588 478 588 c 4
 433 588 403 618 403 656 c 4
25 65 m 5
 115 65 l 5
 115 0 l 5
 25 0 l 5
 25 65 l 5
245 65 m 5
 335 65 l 5
 335 0 l 5
 245 0 l 5
 245 65 l 5
25 520 m 5
 455 520 l 5
 455 455 l 5
 25 455 l 5
 25 520 l 5
115 572 m 5
 245 550 l 5
 245 0 l 5
 115 0 l 5
 115 572 l 5
380 65 m 5
 450 65 l 5
 450 0 l 5
 380 0 l 5
 380 65 l 5
580 65 m 5
 670 65 l 5
 670 0 l 5
 580 0 l 5
 580 65 l 5
450 520 m 5
 580 520 l 5
 580 0 l 5
 450 0 l 5
 450 520 l 5
EndSplineSet
Fore
SplineSet
410 85 m 5
 490 85 l 5
 490 0 l 5
 410 0 l 5
 410 85 l 5
660 85 m 5
 750 85 l 5
 750 0 l 5
 660 0 l 5
 660 85 l 5
490 520 m 5
 660 520 l 5
 660 0 l 5
 490 0 l 5
 490 520 l 5
620 664 m 5
 445 712 l 5
 445 720 421 725 399 725 c 4
 319 725 280 677 280 550 c 5
 110 572 l 5
 110 703 217 800 387 800 c 4
 518 800 620 761 620 664 c 5
423 656 m 4
 423 693 445 705 445 712 c 5
 620 664 l 5
 620 604 575 563 523 563 c 4
 461 563 423 601 423 656 c 4
20 85 m 5
 110 85 l 5
 110 0 l 5
 20 0 l 5
 20 85 l 5
280 85 m 5
 390 85 l 5
 390 0 l 5
 280 0 l 5
 280 85 l 5
20 520 m 5
 490 520 l 5
 490 435 l 5
 20 435 l 5
 20 520 l 5
110 572 m 5
 280 550 l 5
 280 0 l 5
 110 0 l 5
 110 572 l 5
EndSplineSet
LCarets2: 1 0
Ligature2: "Not your mama's contextual ligatures" f i
EndChar

StartChar: uniFB02
Encoding: 64258 64258 544
Width: 785
VWidth: 1155
Flags: HMW
LayerCount: 2
Back
SplineSet
550 674 m 5
 421 718 l 5
 421 730 386 740 344 740 c 4
 274 740 245 677 245 550 c 5
 115 572 l 5
 115 703 192 795 342 795 c 4
 473 795 550 741 550 674 c 5
393 656 m 4
 393 696 421 703 421 718 c 5
 550 674 l 5
 550 621 513 588 468 588 c 4
 423 588 393 618 393 656 c 4
25 65 m 5
 115 65 l 5
 115 0 l 5
 25 0 l 5
 25 65 l 5
245 65 m 5
 365 65 l 5
 365 0 l 5
 245 0 l 5
 245 65 l 5
25 520 m 5
 385 520 l 5
 385 455 l 5
 25 455 l 5
 25 520 l 5
115 572 m 5
 245 550 l 5
 245 0 l 5
 115 0 l 5
 115 572 l 5
390 65 m 5
 480 65 l 5
 480 0 l 5
 390 0 l 5
 390 65 l 5
610 65 m 5
 700 65 l 5
 700 0 l 5
 610 0 l 5
 610 65 l 5
480 730 m 5
 610 800 l 5
 610 0 l 5
 480 0 l 5
 480 730 l 5
EndSplineSet
Fore
SplineSet
610 644 m 5
 443 689 l 5
 443 697 411 705 389 705 c 4
 309 705 280 637 280 550 c 5
 110 572 l 5
 110 703 217 780 367 780 c 4
 498 780 610 731 610 644 c 5
413 626 m 4
 413 673 443 678 443 689 c 5
 610 644 l 5
 610 574 565 533 513 533 c 4
 451 533 413 571 413 626 c 4
20 85 m 5
 110 85 l 5
 110 0 l 5
 20 0 l 5
 20 85 l 5
280 85 m 5
 380 85 l 5
 380 0 l 5
 280 0 l 5
 280 85 l 5
20 520 m 5
 420 520 l 5
 420 435 l 5
 20 435 l 5
 20 520 l 5
110 572 m 5
 280 550 l 5
 280 0 l 5
 110 0 l 5
 110 572 l 5
430 85 m 5
 520 85 l 5
 520 0 l 5
 430 0 l 5
 430 85 l 5
690 85 m 5
 780 85 l 5
 780 0 l 5
 690 0 l 5
 690 85 l 5
520 700 m 5
 690 800 l 5
 690 0 l 5
 520 0 l 5
 520 700 l 5
EndSplineSet
LCarets2: 1 0
Ligature2: "Not your mama's contextual ligatures" f l
EndChar

StartChar: uniFB03
Encoding: 64259 64259 545
Width: 1160
VWidth: 1155
Flags: HMW
LayerCount: 2
Back
SplineSet
910 674 m 5
 779 716 l 5
 779 728 746 740 704 740 c 4
 624 740 595 677 595 550 c 5
 465 572 l 5
 465 703 542 795 702 795 c 4
 833 795 910 741 910 674 c 5
753 656 m 4
 753 696 779 701 779 716 c 5
 910 674 l 5
 910 621 873 588 828 588 c 4
 783 588 753 618 753 656 c 4
375 65 m 5
 465 65 l 5
 465 0 l 5
 375 0 l 5
 375 65 l 5
595 65 m 5
 685 65 l 5
 685 0 l 5
 595 0 l 5
 595 65 l 5
25 520 m 5
 805 520 l 5
 805 455 l 5
 25 455 l 5
 25 520 l 5
465 572 m 5
 595 550 l 5
 595 0 l 5
 465 0 l 5
 465 572 l 5
540 654 m 5
 411 698 l 5
 411 710 386 720 344 720 c 4
 284 720 245 657 245 530 c 5
 115 552 l 5
 115 683 192 775 342 775 c 4
 473 775 540 721 540 654 c 5
383 636 m 4
 383 676 411 683 411 698 c 5
 540 654 l 5
 540 601 503 568 458 568 c 4
 413 568 383 598 383 636 c 4
25 65 m 5
 115 65 l 5
 115 0 l 5
 25 0 l 5
 25 65 l 5
245 65 m 5
 345 65 l 5
 345 0 l 5
 245 0 l 5
 245 65 l 5
115 552 m 5
 245 530 l 5
 245 0 l 5
 115 0 l 5
 115 552 l 5
715 65 m 5
 805 65 l 5
 805 0 l 5
 715 0 l 5
 715 65 l 5
935 65 m 5
 1025 65 l 5
 1025 0 l 5
 935 0 l 5
 935 65 l 5
805 520 m 5
 935 520 l 5
 935 0 l 5
 805 0 l 5
 805 520 l 5
EndSplineSet
Fore
SplineSet
600 644 m 1
 433 689 l 1
 433 697 411 705 389 705 c 0
 309 705 280 637 280 550 c 1
 110 572 l 1
 110 703 217 780 367 780 c 0
 498 780 600 731 600 644 c 1
403 626 m 0
 403 673 433 678 433 689 c 1
 600 644 l 1
 600 574 555 553 503 553 c 4
 441 553 403 571 403 626 c 0
20 85 m 1
 110 85 l 1
 110 0 l 1
 20 0 l 1
 20 85 l 1
280 85 m 1
 380 85 l 1
 380 0 l 1
 280 0 l 1
 280 85 l 1
20 520 m 1
 890 520 l 1
 890 435 l 1
 20 435 l 1
 20 520 l 1
110 572 m 1
 280 550 l 1
 280 0 l 1
 110 0 l 1
 110 572 l 1
810 85 m 1
 890 85 l 1
 890 0 l 1
 810 0 l 1
 810 85 l 1
1060 85 m 1
 1150 85 l 1
 1150 0 l 1
 1060 0 l 1
 1060 85 l 1
890 520 m 1
 1060 520 l 1
 1060 0 l 1
 890 0 l 1
 890 520 l 1
1020 664 m 1
 845 712 l 1
 845 720 821 725 799 725 c 0
 719 725 680 677 680 550 c 1
 510 572 l 1
 510 703 617 800 787 800 c 0
 918 800 1020 761 1020 664 c 1
823 656 m 0
 823 693 845 705 845 712 c 1
 1020 664 l 1
 1020 604 975 563 923 563 c 0
 861 563 823 601 823 656 c 0
420 85 m 1
 510 85 l 1
 510 0 l 1
 420 0 l 1
 420 85 l 1
680 85 m 1
 790 85 l 1
 790 0 l 1
 680 0 l 1
 680 85 l 1
510 572 m 1
 680 550 l 1
 680 0 l 1
 510 0 l 1
 510 572 l 1
EndSplineSet
LCarets2: 2 0 0
Ligature2: "Not your mama's contextual ligatures" f f i
EndChar

StartChar: uniFB04
Encoding: 64260 64260 546
Width: 1185
VWidth: 1155
Flags: HMW
LayerCount: 2
Back
SplineSet
900 674 m 5
 771 718 l 5
 771 730 736 740 694 740 c 4
 624 740 595 677 595 550 c 5
 465 572 l 5
 465 703 542 795 692 795 c 4
 823 795 900 741 900 674 c 5
743 656 m 4
 743 696 771 703 771 718 c 5
 900 674 l 5
 900 621 863 588 818 588 c 4
 773 588 743 618 743 656 c 4
375 65 m 5
 465 65 l 5
 465 0 l 5
 375 0 l 5
 375 65 l 5
595 65 m 5
 685 65 l 5
 685 0 l 5
 595 0 l 5
 595 65 l 5
25 520 m 5
 715 520 l 5
 715 455 l 5
 25 455 l 5
 25 520 l 5
465 572 m 5
 595 550 l 5
 595 0 l 5
 465 0 l 5
 465 572 l 5
540 654 m 5
 411 698 l 5
 411 710 386 720 344 720 c 4
 284 720 245 657 245 530 c 5
 115 552 l 5
 115 683 192 775 342 775 c 4
 473 775 540 721 540 654 c 5
383 636 m 4
 383 676 411 683 411 698 c 5
 540 654 l 5
 540 601 503 568 458 568 c 4
 413 568 383 598 383 636 c 4
25 65 m 5
 115 65 l 5
 115 0 l 5
 25 0 l 5
 25 65 l 5
245 65 m 5
 345 65 l 5
 345 0 l 5
 245 0 l 5
 245 65 l 5
115 552 m 5
 245 530 l 5
 245 0 l 5
 115 0 l 5
 115 552 l 5
715 65 m 5
 805 65 l 5
 805 0 l 5
 715 0 l 5
 715 65 l 5
935 65 m 5
 1025 65 l 5
 1025 0 l 5
 935 0 l 5
 935 65 l 5
805 730 m 5
 935 800 l 5
 935 0 l 5
 805 0 l 5
 805 730 l 5
EndSplineSet
Fore
SplineSet
600 644 m 5
 433 689 l 5
 433 697 411 705 389 705 c 4
 309 705 280 637 280 550 c 5
 110 572 l 5
 110 703 217 780 367 780 c 4
 498 780 600 731 600 644 c 5
403 626 m 4
 403 673 433 678 433 689 c 5
 600 644 l 5
 600 574 555 553 503 553 c 4
 441 553 403 571 403 626 c 4
20 85 m 5
 110 85 l 5
 110 0 l 5
 20 0 l 5
 20 85 l 5
280 85 m 5
 380 85 l 5
 380 0 l 5
 280 0 l 5
 280 85 l 5
20 520 m 5
 800 520 l 5
 800 435 l 5
 20 435 l 5
 20 520 l 5
110 572 m 5
 280 550 l 5
 280 0 l 5
 110 0 l 5
 110 572 l 5
1010 644 m 1
 843 689 l 1
 843 697 811 705 789 705 c 0
 709 705 680 637 680 550 c 1
 510 572 l 1
 510 703 617 780 767 780 c 0
 898 780 1010 731 1010 644 c 1
813 626 m 0
 813 673 843 678 843 689 c 1
 1010 644 l 1
 1010 574 965 533 913 533 c 0
 851 533 813 571 813 626 c 0
420 85 m 1
 510 85 l 1
 510 0 l 1
 420 0 l 1
 420 85 l 1
680 85 m 1
 780 85 l 1
 780 0 l 1
 680 0 l 1
 680 85 l 1
420 520 m 1
 820 520 l 1
 820 435 l 1
 420 435 l 1
 420 520 l 1
510 572 m 1
 680 550 l 1
 680 0 l 1
 510 0 l 1
 510 572 l 1
830 85 m 1
 920 85 l 1
 920 0 l 1
 830 0 l 1
 830 85 l 1
1090 85 m 1
 1180 85 l 1
 1180 0 l 1
 1090 0 l 1
 1090 85 l 1
920 700 m 1
 1090 800 l 1
 1090 0 l 1
 920 0 l 1
 920 700 l 1
EndSplineSet
LCarets2: 2 0 0
Ligature2: "Not your mama's contextual ligatures" f f l
EndChar

StartChar: uniFFFD
Encoding: 65533 65533 547
Width: 830
Flags: HMW
LayerCount: 2
Back
SplineSet
465 430 m 1
 521 430 575 466 575 545 c 0
 575 624 521 645 465 645 c 1
 465 750 l 1
 686 750 765 665 765 545 c 0
 765 445 696 364 465 364 c 1
 465 430 l 1
325 750 m 1
 465 750 l 1
 465 645 l 1
 325 645 l 1
 325 750 l 1
325 430 m 1
 485 430 l 1
 485 320 l 1
 325 320 l 1
 325 430 l 1
30 105 m 1
 140 105 l 1
 140 0 l 1
 30 0 l 1
 30 105 l 1
30 750 m 1
 140 750 l 1
 140 645 l 1
 30 645 l 1
 30 750 l 1
140 750 m 5
 325 750 l 5
 325 0 l 5
 140 0 l 5
 140 750 l 5
325 105 m 1
 435 105 l 1
 435 0 l 1
 325 0 l 1
 325 105 l 1
923 120 m 1
 881 44 831 -10 705 -10 c 0
 452.03125 -10 641.256835938 320 415 320 c 1
 495 381 l 1
 848.294921875 381 679.228515625 118 772 118 c 0
 793 118 821 151 843 187 c 1
 923 120 l 1
EndSplineSet
Fore
SplineSet
140 750 m 1
 325 750 l 1
 325 0 l 1
 140 0 l 1
 140 750 l 1
465 430 m 1
 521 430 575 466 575 545 c 0
 575 624 521 645 465 645 c 1
 465 750 l 1
 686 750 765 665 765 545 c 0
 765 445 696 364 465 364 c 1
 465 430 l 1
325 750 m 1
 465 750 l 1
 465 645 l 1
 325 645 l 1
 325 750 l 1
325 430 m 1
 485 430 l 1
 485 320 l 1
 325 320 l 1
 325 430 l 1
30 105 m 1
 140 105 l 1
 140 0 l 1
 30 0 l 1
 30 105 l 1
30 750 m 1
 140 750 l 1
 140 645 l 1
 30 645 l 1
 30 750 l 1
325 105 m 1
 435 105 l 1
 435 0 l 1
 325 0 l 1
 325 105 l 1
820 0 m 29
 705 0 l 2
 422.03125 0 626.256835938 320 390 320 c 1
 460 381 l 1
 823.294921875 381 658.228515625 105 761 105 c 2
 820 105 l 5
 820 0 l 29
EndSplineSet
EndChar
